<svg id="Слой_1" data-name="Слой 1" xmlns="http://www.w3.org/2000/svg" viewBox="0 0 841.89 559.95"><defs><style>.cls-1{fill:#f0e85a;}.cls-2{fill:#4a8532;}.cls-3{fill:#754d2a;}.cls-4{fill:#8ed0d9;}.cls-5{fill:#293d1c;}.cls-6{fill:#498533;}.cls-7{fill:#0e4e28;}.cls-8{fill:#06813c;}.cls-9{fill:#104422;}.cls-10{fill:#8dc047;}.cls-11{fill:#0c9247;}.cls-12{fill:#12612e;}.cls-13{fill:#4aae45;}.cls-14{fill:#402416;}.cls-15{fill:#163;}.cls-16{fill:#8abf4a;}.cls-17{fill:#f8a927;}.cls-18{fill:#c38441;}.cls-19{fill:#f8ac1c;}.cls-20{fill:#fdd288;}.cls-21{fill:#472714;}.cls-22{fill:#0f6a39;}.cls-23{fill:#945748;}.cls-24,.cls-27{fill:#f9bc5f;}.cls-24{opacity:0.5;}.cls-25{fill:#a06a5c;}.cls-26{fill:#fff;}.cls-28{fill:#894634;}.cls-29{fill:#282016;}.cls-30{fill:#d39c82;}.cls-31{fill:#e7b7b0;}.cls-32{fill:#d98e5c;}.cls-33{fill:#bf331f;}.cls-34{fill:#b74f25;}.cls-35{fill:#fcca7a;}.cls-36{fill:none;stroke:#e28e1e;stroke-miterlimit:10;stroke-width:0.5px;}.cls-37{fill:#c47652;}.cls-38{fill:#584131;}</style></defs><circle class="cls-1" cx="651.92" cy="51.4" r="48.43"/><path class="cls-2" d="M841.89,423.91V595.28H0V372.93c13.67-4,33.26-9.66,57.08-15.21,87.54-20.36,191.68-32.18,303.44-32.18S576.42,337.36,664,357.72C736.3,374.56,797.31,397.23,841.89,423.91Z" transform="translate(0 -35.33)"/><path class="cls-3" d="M811.3,238.3" transform="translate(0 -35.33)"/><path class="cls-4" d="M229.53,88.94A41.09,41.09,0,0,1,188.44,130h-1a41.1,41.1,0,0,1-75-.86A41.09,41.09,0,0,1,91.93,49.64a41.08,41.08,0,0,1,54.13-7.29l1.29,0A40.87,40.87,0,0,1,172.62,51a41.11,41.11,0,0,1,56.91,37.92Z" transform="translate(0 -35.33)"/><path class="cls-4" d="M504.29,106.14a20.55,20.55,0,0,1-20.54,20.55h-.52a20.54,20.54,0,0,1-37.51-.43,20.55,20.55,0,0,1-10.23-39.76,20.55,20.55,0,0,1,27.07-3.64h.64a20.48,20.48,0,0,1,12.64,4.34,20.55,20.55,0,0,1,28.45,19Z" transform="translate(0 -35.33)"/><path class="cls-4" d="M118.58,134.45l-.12.09a.16.16,0,0,1,0-.09A.14.14,0,0,0,118.58,134.45Z" transform="translate(0 -35.33)"/><path class="cls-4" d="M147.61,112a.09.09,0,0,1,0,0,0,0,0,0,0,0,0A.1.1,0,0,1,147.61,112Z" transform="translate(0 -35.33)"/><path class="cls-4" d="M118.49,134.45a.14.14,0,0,0,.09,0l-.12.09A.16.16,0,0,1,118.49,134.45Z" transform="translate(0 -35.33)"/><path class="cls-4" d="M147.61,112a.09.09,0,0,1,0,0,0,0,0,0,0,0,0A.1.1,0,0,1,147.61,112Z" transform="translate(0 -35.33)"/><path class="cls-4" d="M147.61,112a.09.09,0,0,1,0,0,0,0,0,0,0,0,0A.1.1,0,0,1,147.61,112Z" transform="translate(0 -35.33)"/><path class="cls-4" d="M147.61,112a.09.09,0,0,1,0,0,0,0,0,0,0,0,0A.1.1,0,0,1,147.61,112Z" transform="translate(0 -35.33)"/><path class="cls-4" d="M147.61,112a.09.09,0,0,1,0,0,0,0,0,0,0,0,0A.1.1,0,0,1,147.61,112Z" transform="translate(0 -35.33)"/><path class="cls-4" d="M741.23,97.06A28.32,28.32,0,0,0,688.81,82.2a28.12,28.12,0,0,0-9.31-1.57,27.15,27.15,0,0,0-5.21.49,28.28,28.28,0,0,0-32-2.56,28.29,28.29,0,0,0-31.47,2.11c-.44,0-.89,0-1.33,0a28.31,28.31,0,0,0-21.2,47.07,28.3,28.3,0,0,0,41.12,22.87,28.32,28.32,0,0,0,48,3.21c.46,0,.92,0,1.39,0a28.17,28.17,0,0,0,14.42-3.95,28.32,28.32,0,0,0,41.13-34.25A28.15,28.15,0,0,0,741.23,97.06ZM655.8,108.93a.09.09,0,0,1,0,0,0,0,0,0,0,0,0A.1.1,0,0,1,655.8,108.93Zm-29.12,22.41h.09l-.12.09A.16.16,0,0,1,626.68,131.34Z" transform="translate(0 -35.33)"/><path class="cls-4" d="M400.24,54.25a15.12,15.12,0,0,0-28-7.94,15.16,15.16,0,0,0-5-.84,14.34,14.34,0,0,0-2.79.27,15.09,15.09,0,0,0-17.1-1.37,15.11,15.11,0,0,0-16.8,1.12l-.71,0a15.12,15.12,0,0,0-11.32,25.14,15.12,15.12,0,0,0,22,12.21,15.12,15.12,0,0,0,25.61,1.71c.24,0,.49,0,.74,0a15,15,0,0,0,7.7-2.11,15.11,15.11,0,0,0,22-18.28A15,15,0,0,0,400.24,54.25Zm-45.61,6.33v0h0Zm-15.55,12h.05l-.06,0A.07.07,0,0,1,339.08,72.55Z" transform="translate(0 -35.33)"/><path class="cls-4" d="M118.58,134.45l-.12.09a.16.16,0,0,1,0-.09A.14.14,0,0,0,118.58,134.45Z" transform="translate(0 -35.33)"/><path class="cls-4" d="M118.58,134.45l-.12.09a.16.16,0,0,1,0-.09A.14.14,0,0,0,118.58,134.45Z" transform="translate(0 -35.33)"/><path class="cls-5" d="M571.21,317.78h-4.06l6.76,18.14c1.2,3.22-.3,7.25-2.7,7.25H522c-2.3,0-3.75-3.87-2.6-7l6.87-18.43H522c-2.3,0-3.75-3.87-2.6-7l6.67-17.88H522c-2.3,0-3.75-3.87-2.6-7l27.31-73.29,27.2,73c1.2,3.22-.3,7.25-2.7,7.25h-3.85l6.55,17.59C575.11,313.75,573.61,317.78,571.21,317.78Z" transform="translate(0 -35.33)"/><path class="cls-5" d="M598.87,328h-4.06l6.76,18.14c1.2,3.22-.3,7.25-2.7,7.25H549.66c-2.3,0-3.74-3.86-2.59-7L553.94,328h-4.28c-2.3,0-3.74-3.86-2.59-7l6.66-17.88h-4.07c-2.3,0-3.74-3.86-2.59-6.95l27.31-73.29,27.19,73c1.2,3.23-.3,7.25-2.7,7.25H595l6.55,17.59C602.77,324,601.27,328,598.87,328Z" transform="translate(0 -35.33)"/><path class="cls-5" d="M578,326.17h-4l6.76,18.14c1.2,3.23-.31,7.26-2.71,7.26h-49.2c-2.31,0-3.75-3.87-2.6-7l6.87-18.44h-4.27c-2.31,0-3.75-3.86-2.6-6.95l6.66-17.88h-4.06c-2.31,0-3.75-3.87-2.6-7l27.31-73.29,27.2,73c1.2,3.23-.31,7.26-2.71,7.26h-3.85l6.56,17.58C581.93,322.14,580.42,326.17,578,326.17Z" transform="translate(0 -35.33)"/><path class="cls-5" d="M557.6,345.94h-4.06l6.76,18.14c1.2,3.22-.3,7.25-2.7,7.25H508.39c-2.3,0-3.75-3.86-2.6-6.95l6.87-18.44h-4.27c-2.3,0-3.75-3.86-2.6-7l6.67-17.88h-4.07c-2.3,0-3.75-3.86-2.6-7l27.31-73.29,27.2,73c1.2,3.23-.3,7.25-2.7,7.25h-3.85l6.55,17.59C561.5,341.91,560,345.94,557.6,345.94Z" transform="translate(0 -35.33)"/><path class="cls-5" d="M535.76,320.59h-4l6.76,18.14c1.19,3.22-.31,7.25-2.71,7.25H486.55c-2.3,0-3.74-3.87-2.59-7l6.87-18.43h-4.28c-2.3,0-3.74-3.87-2.59-7l6.66-17.88h-4.07c-2.3,0-3.74-3.87-2.59-7l27.31-73.29,27.2,73c1.19,3.22-.31,7.25-2.71,7.25h-3.85l6.56,17.59C539.66,316.56,538.16,320.59,535.76,320.59Z" transform="translate(0 -35.33)"/><path class="cls-5" d="M522.69,320.59h-4.05l6.76,18.14c1.19,3.22-.31,7.25-2.71,7.25H473.48c-2.3,0-3.74-3.87-2.59-7l6.87-18.43h-4.28c-2.3,0-3.74-3.87-2.59-7l6.66-17.88h-4.07c-2.3,0-3.74-3.87-2.59-7L498.2,215.5l27.2,73c1.19,3.22-.31,7.25-2.71,7.25h-3.85l6.56,17.59C526.59,316.56,525.09,320.59,522.69,320.59Z" transform="translate(0 -35.33)"/><path class="cls-5" d="M501.17,341.49h-4.06l6.76,18.14c1.2,3.22-.3,7.25-2.7,7.25H452c-2.3,0-3.74-3.87-2.59-7l6.87-18.43H452c-2.3,0-3.74-3.87-2.59-7L456,316.65H452c-2.3,0-3.74-3.87-2.59-7l27.3-73.29,27.2,73c1.2,3.22-.3,7.25-2.7,7.25h-3.85l6.55,17.58C505.07,337.46,503.57,341.49,501.17,341.49Z" transform="translate(0 -35.33)"/><path class="cls-5" d="M501.17,320.59h-4.06l6.76,18.14c1.2,3.22-.3,7.25-2.7,7.25H452c-2.3,0-3.74-3.87-2.59-7l6.87-18.43H452c-2.3,0-3.74-3.87-2.59-7L456,295.75H452c-2.3,0-3.74-3.87-2.59-7l27.3-73.29,27.2,73c1.2,3.22-.3,7.25-2.7,7.25h-3.85l6.55,17.59C505.07,316.56,503.57,320.59,501.17,320.59Z" transform="translate(0 -35.33)"/><path class="cls-5" d="M487.16,332H483.1l6.76,18.14c1.2,3.22-.3,7.25-2.7,7.25H438c-2.3,0-3.74-3.86-2.59-6.95L442.23,332H438c-2.3,0-3.74-3.86-2.59-7L442,307.2H438c-2.3,0-3.74-3.86-2.59-6.95L462.66,227l27.2,73c1.2,3.23-.3,7.25-2.7,7.25h-3.85l6.55,17.59C491.06,328,489.56,332,487.16,332Z" transform="translate(0 -35.33)"/><path class="cls-5" d="M462.82,326.17h-4.05l6.76,18.14c1.19,3.23-.31,7.26-2.71,7.26H413.61c-2.3,0-3.74-3.87-2.59-7l6.87-18.44h-4.28c-2.3,0-3.74-3.86-2.59-6.95l6.66-17.88h-4.07c-2.3,0-3.74-3.87-2.59-7l27.31-73.29,27.2,73c1.19,3.23-.31,7.26-2.71,7.26H459l6.56,17.58C466.72,322.14,465.22,326.17,462.82,326.17Z" transform="translate(0 -35.33)"/><path class="cls-5" d="M424.79,328h-4.06l6.76,18.14c1.2,3.22-.3,7.25-2.7,7.25H375.58c-2.3,0-3.75-3.86-2.6-7L379.85,328h-4.27c-2.3,0-3.75-3.86-2.6-7l6.67-17.88h-4.07c-2.3,0-3.75-3.86-2.6-6.95l27.31-73.29,27.2,73c1.2,3.23-.3,7.25-2.7,7.25h-3.85l6.55,17.59C428.69,324,427.19,328,424.79,328Z" transform="translate(0 -35.33)"/><path class="cls-5" d="M633.35,337.49H629.3l6.76,18.14c1.2,3.22-.31,7.25-2.71,7.25h-49.2c-2.31,0-3.75-3.87-2.6-7l6.87-18.43h-4.27c-2.31,0-3.75-3.87-2.6-7l6.67-17.88h-4.07c-2.31,0-3.75-3.87-2.6-7l27.31-73.29,27.2,73c1.2,3.22-.31,7.25-2.71,7.25h-3.84l6.55,17.58C637.26,333.45,635.75,337.49,633.35,337.49Z" transform="translate(0 -35.33)"/><path class="cls-5" d="M628,334.75H624l6.76,18.14c1.2,3.23-.3,7.26-2.7,7.26H578.82c-2.3,0-3.74-3.87-2.59-7l6.87-18.44h-4.28c-2.3,0-3.74-3.86-2.59-6.95l6.66-17.88h-4.07c-2.3,0-3.74-3.87-2.59-7l27.3-73.29,27.2,73c1.2,3.22-.3,7.25-2.7,7.25h-3.85l6.55,17.58C631.93,330.72,630.43,334.75,628,334.75Z" transform="translate(0 -35.33)"/><path class="cls-5" d="M655.7,345.94h-4.06l6.76,18.14c1.2,3.22-.3,7.25-2.7,7.25H606.49c-2.3,0-3.75-3.86-2.6-6.95l6.87-18.44h-4.27c-2.3,0-3.75-3.86-2.6-7l6.67-17.88h-4.07c-2.3,0-3.75-3.86-2.6-7l27.31-73.29,27.2,73c1.2,3.23-.3,7.25-2.7,7.25h-3.85l6.55,17.59C659.6,341.91,658.1,345.94,655.7,345.94Z" transform="translate(0 -35.33)"/><path class="cls-5" d="M668.73,345.94h-4.06l6.76,18.14c1.2,3.22-.3,7.25-2.7,7.25H619.52c-2.3,0-3.75-3.86-2.59-6.95l6.86-18.44h-4.27c-2.3,0-3.75-3.86-2.59-7l6.66-17.88h-4.07c-2.3,0-3.75-3.86-2.59-7l27.3-73.29,27.2,73c1.2,3.23-.3,7.25-2.7,7.25h-3.85l6.55,17.59C672.63,341.91,671.13,345.94,668.73,345.94Z" transform="translate(0 -35.33)"/><path class="cls-5" d="M704.13,364.47h-4.06l6.76,18.15c1.2,3.22-.3,7.25-2.7,7.25H654.92c-2.31,0-3.75-3.87-2.6-7l6.87-18.44h-4.27c-2.31,0-3.75-3.86-2.6-7L659,339.64h-4.07c-2.31,0-3.75-3.87-2.6-7l27.31-73.29,27.2,73c1.2,3.22-.3,7.25-2.7,7.25h-3.85l6.55,17.58C708,360.44,706.53,364.47,704.13,364.47Z" transform="translate(0 -35.33)"/><ellipse class="cls-6" cx="100.21" cy="312.38" rx="26.34" ry="21.5"/><circle class="cls-7" cx="219.99" cy="274.34" r="47.96"/><ellipse class="cls-8" cx="205.94" cy="222.91" rx="47.55" ry="44.41"/><ellipse class="cls-9" cx="153.01" cy="180.49" rx="41.35" ry="34.32"/><circle class="cls-10" cx="121.37" cy="252.38" r="49.54"/><circle class="cls-11" cx="203.04" cy="262.35" r="40.93"/><ellipse class="cls-12" cx="133.23" cy="306.15" rx="33.01" ry="30.21"/><ellipse class="cls-11" cx="126.55" cy="210.26" rx="21.09" ry="18.61"/><ellipse class="cls-13" cx="99.68" cy="292.53" rx="31.59" ry="24.43"/><polygon class="cls-14" points="229.72 276.71 238.72 281.2 237.63 282.59 218.25 275 208.02 277.94 191.43 288.63 193.01 306.06 222.75 292.98 193.62 312.83 202.07 406.22 153.28 407.46 157.44 310.22 144.45 308.57 131.12 312.06 131.74 317.8 128.95 312.83 117 314.23 125.84 310.35 118.4 307.77 128.95 309.42 137.78 306.79 118.87 304.15 84.91 302.14 84.91 300.58 120.73 299.34 157.67 304.95 159.11 271.44 136.33 262.75 118.14 250.14 110.08 248.9 110.08 247.87 117.52 248.28 110.08 243.32 111.12 242.08 134.06 254.6 130.34 243.94 139.02 257.17 159.37 265.25 161.07 225.55 185.98 228.45 186.34 232.4 191.11 222.91 192.36 224.61 186.92 238.88 190.96 283.4 202.9 277.17 208.02 265.07 209.41 265.07 207.24 275.15 229.25 262.75 230.97 264 218.41 271.75 226.31 275.46 239.95 273.08 229.72 276.71"/><circle class="cls-15" cx="156.32" cy="227.62" r="31.63"/><circle class="cls-16" cx="105.47" cy="197.44" r="12.82"/><path class="cls-17" d="M103.25,334.59v2.63a1.29,1.29,0,1,1-2.55,0v-1.16H99.33v1a1.27,1.27,0,1,1-2.51,0v-2.92a1.38,1.38,0,0,1,1.26-1.47,1.14,1.14,0,0,1,.82.37h2.76v.05a1,1,0,0,1,.31-.05A1.41,1.41,0,0,1,103.25,334.59Z" transform="translate(0 -35.33)"/><path class="cls-17" d="M112.62,334.62v2.61a1.29,1.29,0,1,1-2.56,0v-1.15h-1.37v1a1.27,1.27,0,1,1-2.51,0v-2.9a1.37,1.37,0,0,1,1.26-1.46,1.14,1.14,0,0,1,.83.37H111v.05a.86.86,0,0,1,.32-.05A1.4,1.4,0,0,1,112.62,334.62Z" transform="translate(0 -35.33)"/><ellipse class="cls-18" cx="104.62" cy="249.55" rx="15.4" ry="14.23"/><circle class="cls-19" cx="104.62" cy="253.68" r="3.24"/><rect class="cls-18" x="86.01" y="238.72" width="36.46" height="3.74" rx="1.6"/><ellipse class="cls-18" cx="105.2" cy="279.49" rx="15.96" ry="20.43"/><path class="cls-18" d="M94.07,294.39a5.62,5.62,0,0,0-3.49,1.44,18.08,18.08,0,0,0-4.2,12.3c-.38,9.5,2,17.06,6.15,23.27a1.53,1.53,0,0,0,1.54.26l4.4-32A9.73,9.73,0,0,0,94.07,294.39Z" transform="translate(0 -35.33)"/><path class="cls-18" d="M115.12,294.39a5.86,5.86,0,0,1,3.59,1.48A18.57,18.57,0,0,1,123,308.51c.39,9.78-2,17.55-6.32,23.93a2.19,2.19,0,0,1-1.59.27l-4.53-32.94A10,10,0,0,1,115.12,294.39Z" transform="translate(0 -35.33)"/><path class="cls-20" d="M90.59,277.83c-3.47,4.67-1.65,11.71-1.2,11.64-.35.15,3.51,7,8.23,8.18,4.83-3.61,5.48-8.27,3.34-13.63C98.73,279.61,95.39,277.32,90.59,277.83Z" transform="translate(0 -35.33)"/><path class="cls-20" d="M118.24,277.86c3.49,4.7,1.65,11.79,1.21,11.71.35.15-3.54,7-8.28,8.23-4.87-3.63-5.51-8.32-3.36-13.71C110.05,279.65,113.41,277.35,118.24,277.86Z" transform="translate(0 -35.33)"/><path class="cls-18" d="M94.07,331.66c1.16-1.42,2.9-20.35,4.4-32" transform="translate(0 -35.33)"/><path class="cls-18" d="M115.12,332.71c-2.34-.95-3.09-21.07-4.53-32.94" transform="translate(0 -35.33)"/><circle class="cls-21" cx="96.04" cy="249.55" r="1.96"/><circle class="cls-21" cx="113.48" cy="249.55" r="1.96"/><ellipse class="cls-20" cx="104.62" cy="283.23" rx="9.58" ry="15.05"/><path class="cls-2" d="M386.35,426.13l325.56,9.39" transform="translate(0 -35.33)"/><path class="cls-22" d="M841.89,535.22v60.06H0V503.33c163.55-35.71,419.05-67.07,712.87,0q19.83,4.53,39.88,9.66C777.66,519.37,809,526.9,841.89,535.22Z" transform="translate(0 -35.33)"/><circle class="cls-23" cx="505" cy="301.53" r="18.71"/><circle class="cls-24" cx="509.85" cy="305.32" r="12.77"/><circle class="cls-23" cx="604.12" cy="298.59" r="18.71"/><circle class="cls-24" cx="599.27" cy="302.37" r="12.77"/><path class="cls-23" d="M524.62,414.88c.07,12.34,11.29,20.21,6.84,33.76-3.57,10.87-13.61,14.42-11.86,19.16,2,5.4,17.39,7.31,22.35,1.37,3.86-4.62-.75-11.43,4.11-16.88,2.54-2.85,7-4.6,9.58-3.19,4.07,2.22,4.23,12.9-.46,18.7-1.94,2.4-3.74,2.77-3.65,4.11.23,3.47,12.83,8.39,19.16,4.1,7.14-4.83-.19-16.94,7.3-26.91,6.78-9,22.51-12.07,32.4-6.39,7.41,4.26,12.1,13.74,10,16.88-.43.65-.92.68-3.86,3.27-2.06,1.81-3.1,2.74-3.44,3.57-1,2.6,1.16,6.1,2.74,7.76,5.49,5.73,18.89,5.18,25.55-1.37,3.51-3.45,2.68-6.15,5.47-16,4.41-15.47,8.38-15.52,12.32-29.65,2-7,4.1-14.7,2.74-24.64-.45-3.26-2.15-14.66-10.49-24.18-10.62-12.11-25.77-14.08-34.22-15.05C575,358.45,524.46,388.59,524.62,414.88Z" transform="translate(0 -35.33)"/><ellipse class="cls-25" cx="556.78" cy="337.12" rx="64.1" ry="50.64"/><circle class="cls-26" cx="523.02" cy="345.56" r="8.44"/><circle cx="523.02" cy="346.43" r="5.09"/><circle class="cls-26" cx="577.99" cy="345.56" r="8.44"/><circle cx="577.99" cy="346.43" r="5.09"/><path class="cls-27" d="M601.26,459.13" transform="translate(0 -35.33)"/><path class="cls-28" d="M606.13,439.67c-.73.72,3.27,3.51,2.65,7.7-.77,5.17-7.61,5.79-8.59,11.86,0,.27-.61,4.06,1.39,5.55.94.7,2,.59,3.28.51,7.88-.56,7.46.45,9.65-.32,3.66-1.28,7.3-5,7.9-9C623.82,446.31,607.5,438.3,606.13,439.67Z" transform="translate(0 -35.33)"/><path class="cls-27" d="M557.08,384.7c-18.65-1.29-30.69,12.93-33.07,16.54a17.4,17.4,0,0,0-2.46,6s-1,1.09.33,5.28c3.92,12.57,27.35,12.07,54.38,10,1.4-.11,7.18-2.08,9.21-4,3.88-3.72,2.07-12.66-1.65-18.65C575.39,386.24,557.91,384.76,557.08,384.7Z" transform="translate(0 -35.33)"/><path class="cls-29" d="M554.7,396.72a15.91,15.91,0,0,0-9.36,2.28c-.94,4-.5,6.28.92,7.3a12.06,12.06,0,0,0,6.38,5.25h3.2a21.61,21.61,0,0,0,5.47-4.34,8.29,8.29,0,0,0,2.51-4.79,3.26,3.26,0,0,0-1.14-3.65" transform="translate(0 -35.33)"/><circle class="cls-26" cx="524.96" cy="344.51" r="1.06"/><circle class="cls-26" cx="579.73" cy="344.51" r="1.06"/><ellipse class="cls-29" cx="350.25" cy="450.86" rx="41.09" ry="12.86"/><path class="cls-30" d="M326.05,496.43c1.76-6.65,4-12.93,7.68-18.16l33-1.35c3.78,4.86,6.77,11.9,9.55,19.51A121.75,121.75,0,0,1,326.05,496.43Z" transform="translate(0 -35.33)"/><path class="cls-31" d="M359.7,452.9l8.86-31.76a1.59,1.59,0,0,1,.07-.2c2.15-6,4.45-14.19,15.72-16.74a2.82,2.82,0,0,1,1.65.1c3.45,1.4,4.63,4.84,3.34,10.51-.93,8.87-11.07,22.24-19.42,34.75l-.18.23-4.81,5.84a3,3,0,0,1-2.33,1.1h0A3,3,0,0,1,359.7,452.9Z" transform="translate(0 -35.33)"/><path class="cls-32" d="M364.88,455.38c.41-8.13,3.23-16.31,10.27-24.55A123.49,123.49,0,0,1,389.47,414c-.81,7.07-3.55,13.8-7.16,17.74Q374,444,364.88,455.38Z" transform="translate(0 -35.33)"/><path class="cls-31" d="M342.27,451.72c-12.63-12.93-27.68-27.75-31.75-33.94a3.34,3.34,0,0,1-.55-1.45c-.31-3.06,1-5.74,4.9-7.82a3.15,3.15,0,0,1,2.13-.3A22.06,22.06,0,0,1,328.75,415c5.38,4.84,10,13.32,14.53,22A95.44,95.44,0,0,1,348,448.24a3.43,3.43,0,0,1-3.25,4.5h0A3.43,3.43,0,0,1,342.27,451.72Z" transform="translate(0 -35.33)"/><path class="cls-32" d="M344.81,454.59c-13.75-13.88-27.12-27.47-33.8-36-1.25-1.43-.77-1.51,3.09-1.53a16.43,16.43,0,0,1,7.19,1.24c5.08,2.43,10.26,8.14,13.37,14.87C341.35,451.91,345.42,455.72,344.81,454.59Z" transform="translate(0 -35.33)"/><ellipse class="cls-31" cx="351.16" cy="426.17" rx="36.52" ry="21.17"/><circle class="cls-26" cx="331.97" cy="426.17" r="5.71"/><circle class="cls-29" cx="331.97" cy="426.17" r="3.11"/><circle class="cls-26" cx="332.93" cy="425.19" r="0.96"/><circle class="cls-26" cx="366.05" cy="426.17" r="5.71"/><circle class="cls-29" cx="366.05" cy="426.17" r="3.11"/><circle class="cls-26" cx="367.01" cy="425.19" r="0.96"/><path class="cls-33" d="M345,470.32a1.51,1.51,0,0,0,0,1.16c.77,2,1.91,3.32,3.66,3.35,2.18.5,3.63-1.34,4.87-3.84,0-1.33-.58-2.43-4.36-2.39C346.8,468.32,345.55,469,345,470.32Z" transform="translate(0 -35.33)"/><path class="cls-31" d="M338,494A9.34,9.34,0,0,1,348,495.66c.35.36,3,3.18,2,6-.85,2.29-3.79,3.71-5.09,3-.84-.46-.91-1.77-1.55-1.76-.44,0-.53.61-1.14,1.14-1.3,1.11-3.87,1-4.57-.11-.39-.59-.13-1.37-.41-1.45s-.51.63-1,1a3.27,3.27,0,0,1-3.94-.52C331.07,501.32,333.55,495.91,338,494Z" transform="translate(0 -35.33)"/><path class="cls-31" d="M357.2,494.91c3.22-1.39,7.52-1,10.07,1.66.35.36,3,3.17,2,6-.85,2.29-3.79,3.71-5.08,3-.85-.46-.92-1.77-1.56-1.77-.44,0-.52.61-1.14,1.14-1.3,1.12-3.87,1-4.57-.1-.39-.6-.13-1.38-.41-1.45s-.51.63-1,1a3.28,3.28,0,0,1-3.94-.52C350.31,502.22,352.79,496.82,357.2,494.91Z" transform="translate(0 -35.33)"/><path class="cls-34" d="M119.45,510.35c-1.2,8.23,6.61,16.94,2.45,27-1,2.41-1.87,2.95-2.45,3.15-5.18,1.85-12.15-13.77-18.93-12.27-2.44.54-4.7,3.26-4.56,5.61.39,6.55,19.27,8,19.28,13,0,4.62-16.48,7.08-16.13,10.52.2,1.92,5.53,3.33,10.17,3.51,11.24.42,15.23-6.52,26.65-6,1,0,7.85.38,8.41,2.8.9,3.89-15.24,8.89-14.37,13.32.41,2.13,4.62,3.55,8.06,3.16,4.76-.54,7.09-4.44,10.52-7.71,6.12-5.86,15.23-9.23,22.43-9.12,12.66.19,25.87,11.22,29.1,15.08a8.94,8.94,0,0,0,3.16,2.45c3.17,1.45,7.89,1.18,8.76-.7,1.46-3.15-9.31-7.78-8.76-15.43.17-2.34,1.4-5.12,3.5-6s4.7.68,6,1.41c8.62,5,21.69,7.5,23.84,4.55,1.2-1.62-.6-5.39-2.8-7.36s-4.08-1.66-6-2.45c-5.72-2.41-8.06-13.18-7-21,1.24-9.31,8-20,16.48-23.14,1.56-.57,4.29-1.3,6.31-3.85,3-3.84,2.46-9.31,1.75-9.47s-1.06,5-5.26,7.71c-.73.48-4,2.46-6.66,1.06-2.38-1.26-3.58-4.91-2.84-7.37.25-.81.65-1.32.38-1.75-.58-1-4-.8-4.9.7-1.44,2.37,4.54,6.05,3.5,10.52-.66,2.88-4.06,5.32-6.66,4.91-3.56-.57-4.81-6.36-6.31-9.47-7.21-15-44.12-17.59-71.87-6.66C134.87,494.94,120.89,500.45,119.45,510.35Z" transform="translate(0 -35.33)"/><path class="cls-35" d="M119.45,508.5c1.69,9.6,41.84,9.61,65.21,6.66,10.18-1.28,32.24-4.47,34.55-12.39,2.11-7.23-10.27-16.45-25.25-18.54C158.3,479.27,117.63,498.22,119.45,508.5Z" transform="translate(0 -35.33)"/><path class="cls-36" d="M150,496.31l9.3-2.78a103.64,103.64,0,0,1,16-3.86,75,75,0,0,1,21.76.84,12.75,12.75,0,0,1,4.13,1.19,11.82,11.82,0,0,1,2.72,2.22,15,15,0,0,1,3.72,5.32,6.21,6.21,0,0,1-.91,6.17,9,9,0,0,1-4.07,2.19,147.62,147.62,0,0,1-52.06,7.3,34.51,34.51,0,0,1-7.92-1,32.93,32.93,0,0,1-5.87-2.41C124.06,505.13,144.73,497.87,150,496.31Z" transform="translate(0 -35.33)"/><path class="cls-36" d="M144.68,503.08c4.57-4.22,11.09-5.44,17.22-6.47l12.74-2.15A90.66,90.66,0,0,1,186.46,493a13.14,13.14,0,0,1,6.07.87,5.56,5.56,0,0,1,3.42,4.77c0,3.15-3.32,5.14-6.24,6.32a88.18,88.18,0,0,1-25.59,6.12,176.2,176.2,0,0,1-18.39.28,9.4,9.4,0,0,1-3.69-.57C137.36,508.71,142.63,505,144.68,503.08Z" transform="translate(0 -35.33)"/><path class="cls-36" d="M185.56,496a2.63,2.63,0,0,1,1,.15,2,2,0,0,1,1,1.7A5.23,5.23,0,0,1,185.7,502a13.21,13.21,0,0,1-4.15,2.31,63.34,63.34,0,0,1-31.92,3.76,1.7,1.7,0,0,1-1.2-.53c-1-1.4,14.74-7.85,16.58-8.43A66.64,66.64,0,0,1,185.56,496Z" transform="translate(0 -35.33)"/><path class="cls-36" d="M179.31,499.93c.2,0,.43,0,.51.22a.5.5,0,0,1,0,.38,6,6,0,0,1-2.54,3.14,11.1,11.1,0,0,1-4,1.23c-2.55.42-11.93,2.62-13.5.61C164.55,501.12,173,499.63,179.31,499.93Z" transform="translate(0 -35.33)"/><path class="cls-34" d="M144.18,490.13c-2.3,4.93-18.39,1.67-20.73,1.19-6.75-1.37-10.21-2.07-14-4.78-8.6-6.22-12.1-18.23-10.77-27.91,1.13-8.21,4.9-8.65,6-17.94.66-5.69.66-17.72-5.18-19.93-4.66-1.77-12.25,3-13.16,8-.19,1,.14,2.44.8,5.18,1.66,6.87,3.32,8.73,2.39,10.37-1.14,2-5.21,2-7.57,1.59-9.06-1.57-17.51-13.43-18.34-25.11-1.08-15.11,10.64-28.69,23.52-33.89a37.8,37.8,0,0,1,25.12-.8c16,5.12,22.69,19.29,24.32,23.13,7.63,18,2,40.84-8.78,47-1.58.91-3.86,1.8-5.58,4.38-3.69,5.58-2.58,15.82,2.79,19.54s12-1.32,16.75,3.19C143.61,485.07,145.12,488.11,144.18,490.13Z" transform="translate(0 -35.33)"/><path class="cls-30" d="M85.58,446.1c-3-.27-8-4.38-10.37-9.57a19.88,19.88,0,0,1-1.59-12.36C75.79,413.69,86.34,409.3,88,408.62s11.74-4.7,20.73.4c12.25,7,12,25.17,12,27.51-.33,12.4-6.76,15.1-5.58,27.91.4,4.4,1,11.18,6,15.94,0,0,3,2.87,19.93,7.58.33.81,2.1,1.71,1.74,2.67-1.82,5-19.84,6.61-30.64.32-13.84-8.07-14.5-26-14.55-28.31A28,28,0,0,1,101,447.29c1.08-1.84,2.3-1.77,2.4-3.38.06-1.2,4.22-12.27-1-18.34-2.91-3.39-9.45-4-12.06-1.5-2.45,2.33-5,6.64-1.26,16.28C91.36,446.13,87.43,446.26,85.58,446.1Z" transform="translate(0 -35.33)"/><path class="cls-34" d="M161.55,444.62A36.65,36.65,0,0,1,152.78,459c-2.88,2.86-3.65,2.61-6,5.18-7.27,8-6.86,18.38-6.78,19.94.19,3.45.49,9,4.39,12,1,.78,2.25,1.36,8,2,12.5,1.38,15-.47,20.73,2,2.31,1,7.18,3.59,7.18,3.59h0c.62,1.48,1,1.83,1.32,1.8.68-.08.67-2.29,1.53-2.46s1.28,1.47,2.26,1.39.83-1.35,2-1.79,1.95.54,2.92,0a2.13,2.13,0,0,0,1-1.73c.05-1.8-2.63-2.87-2.26-3.79a.83.83,0,0,1,.86-.46c.33.07.33.45.66.73a2,2,0,0,0,2.6-.47c.21-.46-.19-.85.06-1.13s1.26-.17,1.86.34.48,1,.87,1.13c.6.22,1.79-.63,2.12-1.67.51-1.58-1-3.76-2.72-4.78-1.48-.86-3.18-.84-6.58-.8-2,0-3.64.21-3.79-.26s.55-.78.67-.87c1.93-1.42,3.8-8.58,4-13.95.23-6.44-1.73-17.55-7.1-30.63" transform="translate(0 -35.33)"/><path class="cls-34" d="M200.48,401.1c3-1.86,3.47-6.89,2.92-10.1-.23-1.36-.82-4.82-3.72-6.65-3.7-2.33-8.27-.19-9.83.54s-5.74,2.67-6.12,5.84C183.06,396.4,195.08,404.47,200.48,401.1Z" transform="translate(0 -35.33)"/><path class="cls-30" d="M196.87,398.06c2.23-1.11,3.32-4.83,2.13-7.7a6,6,0,0,0-3.72-3.46c-3.33-.86-7.14,2-7.45,4.79C187.41,395.56,193.51,399.74,196.87,398.06Z" transform="translate(0 -35.33)"/><path class="cls-34" d="M139,402.09c-3-1.85-3.47-6.88-2.93-10.09.24-1.36.83-4.82,3.72-6.65,3.7-2.33,8.28-.2,9.84.53s5.73,2.68,6.11,5.85C156.42,397.39,144.39,405.47,139,402.09Z" transform="translate(0 -35.33)"/><path class="cls-30" d="M142.6,399.06c-2.23-1.11-3.31-4.83-2.12-7.71a6,6,0,0,1,3.72-3.45c3.32-.87,7.13,2,7.44,4.78C152.06,396.56,146,400.74,142.6,399.06Z" transform="translate(0 -35.33)"/><ellipse class="cls-34" cx="172.09" cy="382.35" rx="44.65" ry="28.5"/><path class="cls-30" d="M134.61,402.53c-6,3.53-9.05,13.74-6.84,21.13,3.59,12,16.3,17,21.17,19,12.35,5.27,25.5,4.09,33.05,2.77,12.77-2.24,27-7,32.54-18.94,5.32-11.43-1.42-24.75-9.15-27.8s-19.79,5.13-24.15,16.86c-2,5.31-1.63,10.31-5.58,12.36-2.13,1.11-4.55,2.8-4.76,2.77a29.82,29.82,0,0,1-6-4.76c-2.55-2.61-2.38-6.14-2.79-8C159.68,407,143,397.53,134.61,402.53Z" transform="translate(0 -35.33)"/><ellipse class="cls-28" cx="171.75" cy="391" rx="7.97" ry="3.99"/><circle class="cls-26" cx="147.3" cy="385.47" r="7.31"/><circle class="cls-29" cx="147.33" cy="385.94" r="4.59"/><circle class="cls-26" cx="148.89" cy="384.58" r="0.96"/><circle class="cls-26" cx="196.68" cy="382.51" r="7.31"/><circle class="cls-29" cx="196.71" cy="382.97" r="4.59"/><circle class="cls-26" cx="198.27" cy="381.62" r="0.96"/><path class="cls-30" d="M173.48,445.74c-.76,1.15-.11,1.9-.21,4.26,0,0-.16,3.88-6.23,12.67h0a3,3,0,0,0,.08,1.75,1.9,1.9,0,0,0,1.39.69c2.4.33,5.75,5.2,5.94,5.47,4.53,6.65,3.44,17.7-.23,20a4.81,4.81,0,0,0-2.29,2.55c-.23.75-.28,1.89.28,2.3,1.07.79,4-1.49,4.49-1.9,4.44-3.51,8.17-11.18,7-19.28-.88-5.94-3.57-6.44-2.92-10.89s3.43-5.42,4-10.79c.22-2,.56-5.25-1.47-7.25C180.64,442.76,175.1,443.3,173.48,445.74Z" transform="translate(0 -35.33)"/><path class="cls-37" d="M187.75,475.46c3.13,1.22,6.36-.28,8.9-1.46,4-1.84,9.67-6.08,8.89-9.94-.34-1.67-1.77-2.67-3.56-3.84-10.88-7.13-16.33-10.69-19-9-3.73,2.32-1.87,10.83-1.23,13.78C182.55,468.76,183.67,473.87,187.75,475.46Z" transform="translate(0 -35.33)"/><path class="cls-38" d="M181.56,453.25c.47-2,2.67-3.32,3.32-3.72a11.08,11.08,0,0,1,7.18-1.19c2.36.43,3.58,1.52,4.65.8.59-.4.76-1.08,1.06-2.26.62-2.42-.05-3.37.67-4.12,1-1,3.47-.66,3.85.26.21.52-.4.8-1.06,2.39a11,11,0,0,0-.8,4.26c0,.92-.13,1.34.14,1.72.43.62,1.26.59,1.86.74,1.82.44,2.75,2.81,3.32,4.25,1.33,3.4,1.29,8.45-1.46,10.43a4.4,4.4,0,0,1-1.4.66C196.51,469.25,180.11,459.5,181.56,453.25Z" transform="translate(0 -35.33)"/><path class="cls-34" d="M168.25,452.69a5.14,5.14,0,0,0,2.66,2.39c1.86.65,3.45-.41,5.31-1.06,4-1.4,9.8-1.06,12.23,1.86,1.64,2,1.93,5.39.53,6.91-1.08,1.17-2.56.57-6.91,1.07-3.57.4-4,1-6.65,1.32a23.56,23.56,0,0,1-10.36-1.06" transform="translate(0 -35.33)"/></svg>