<svg xmlns="http://www.w3.org/2000/svg" xmlns:xlink="http://www.w3.org/1999/xlink" viewBox="0 0 1224 792"><defs><style>.cls-1{fill:url(#radial-gradient);}.cls-2,.cls-4,.cls-6,.cls-7{fill:none;}.cls-2{stroke:#22a8b7;stroke-linejoin:round;}.cls-2,.cls-4{stroke-linecap:round;}.cls-3{fill:#275d4f;}.cls-4{stroke:#000;stroke-width:1.78px;}.cls-10,.cls-4,.cls-5,.cls-6,.cls-7{stroke-miterlimit:10;}.cls-5{fill:#fff;stroke:#e2bca7;}.cls-10,.cls-6{stroke:#231f20;}.cls-7{stroke:#275d50;}.cls-8{fill:#f18543;}.cls-9{fill:#ea9323;}.cls-10{fill:#020202;stroke-width:0.44px;}</style><radialGradient id="radial-gradient" cx="639.51" cy="537.93" r="1017.85" gradientTransform="translate(-353.91 132.03) scale(1.52 0.74)" gradientUnits="userSpaceOnUse"><stop offset="0" stop-color="#dceef1"/><stop offset="0.05" stop-color="#d3ebee"/><stop offset="0.14" stop-color="#bbe1e7"/><stop offset="0.25" stop-color="#93d3da"/><stop offset="0.38" stop-color="#5cbec9"/><stop offset="0.5" stop-color="#22a8b7"/><stop offset="0.68" stop-color="#268ca1"/><stop offset="0.88" stop-color="#29748e"/><stop offset="1" stop-color="#2a6b87"/></radialGradient></defs><g id="Background"><rect class="cls-1" width="1224" height="792"/><path class="cls-2" d="M788.18,615.84c59.88,0,65.33,26.84,7.18,26.84"/><path class="cls-2" d="M795.36,642.68H483.47"/><path class="cls-2" d="M435.67,612.27c-36.49,0-55-.71-60,4.28"/><path class="cls-2" d="M421.43,601.6c-46.62,0-70.27-.91-76.64,5.46"/><path class="cls-2" d="M791.74,598c36.5,0,55-.71,60,4.28"/><path class="cls-2" d="M806,587.36c46.62,0,70.28-.91,76.64,5.46"/><path class="cls-2" d="M245.52,672c19.89,19.89,93.78,17.05,239.43,17.05H635.44"/><path class="cls-2" d="M749,707.79c145.66,0,219.54,2.85,239.43-17"/><path class="cls-2" d="M289.4,565.58c13.09.9,22.13,2.83,22.13,5.06,0,3.09-17.46,5.6-39,5.6s-39-2.51-39-5.6c0-1.71,5.27-3.23,13.61-4.26"/><path class="cls-2" d="M969.77,591.74c20.53,1.42,34.7,4.44,34.7,7.93,0,4.86-27.38,8.8-61.14,8.8s-61.15-3.94-61.15-8.8c0-2.67,8.28-5.06,21.35-6.67"/><path class="cls-2" d="M955.76,595.62c9.66.66,16.32,2.08,16.32,3.73,0,2.28-12.87,4.13-28.75,4.13s-28.76-1.85-28.76-4.13"/><line class="cls-2" x1="473.5" y1="626.48" x2="774.61" y2="626.48"/><path class="cls-2" d="M906.41,728.67c137.44,0,117.5-69.79-15.66-69.79H445c-67.64,0-44.84-32.4,13.55-32.4"/><path class="cls-2" d="M320.37,728.67h586"/></g><g id="Artwork"><path class="cls-3" d="M824.4,238.94c-41.51,14.07-47.89-15.42-47.89-15.42s25.58,1.82,41.36-6.89,26.48-13.79,42.63-2.18C860.5,214.45,846.35,231.51,824.4,238.94Z"/><path class="cls-3" d="M896.49,234.21c43.08,8.06,45.23-22,45.23-22s-25.06,5.41-41.92-1-28.17-9.9-42.51,3.87C857.29,215.07,873.71,230,896.49,234.21Z"/><path class="cls-3" d="M219.62,298.15c-25.22,25.83-40.92,6.57-40.92,6.57s19.46-8.22,27.79-20.5,14.29-20,30.48-17.53C237,266.69,233,284.5,219.62,298.15Z"/><path class="cls-3" d="M270.77,267.75c34.63-10.17,25-33.07,25-33.07S279.36,248,264.61,249.63s-24.38,3.25-29.76,18.72C234.85,268.35,252.46,273.14,270.77,267.75Z"/><path class="cls-3" d="M927.94,284.93c-38.37-21.18-20.89-45.77-20.89-45.77s15.9,20.12,33,25.91,28,10.27,30.34,30C970.36,295.09,948.23,296.13,927.94,284.93Z"/><path class="cls-3" d="M980,335c23.09,37.25,46.77,18.56,46.77,18.56s-20.9-14.87-27.54-31.63-11.67-27.48-31.51-28.79C967.74,293.14,967.82,315.3,980,335Z"/><line class="cls-4" x1="211.36" y1="235.08" x2="154.97" y2="167.84"/><line class="cls-4" x1="1015.33" y1="244.79" x2="1075.5" y2="181.37"/><line class="cls-4" x1="854.72" y1="129" x2="854.49" y2="39.18"/><path class="cls-5" d="M433.71,560.46c-20-44.19-71.38-67.83-76.3-86.09,24.87,13.88,52,.39,52,.39-24-6.64-46.1-28.3-45.78-41.47,158.79-35.3,281.94-23,366.26,41.08,9.57-53.81-48.16-102.24-46.17-181.56,2-78.93,107.39-80.65,109.15-1.18,0,.39,0,.78,0,1.18C785,367.42,771,358.12,753,292.42c0,0-1.58,37.72,0-1.18s-37.29-38.74-37.18-3.91c.22,67.17,99,110.5,99.79,213.26.81,104.91-90,153.11-272.74,141.65C509.28,640.14,453.77,604.65,433.71,560.46Z"/><path class="cls-6" d="M270.8,570.42s-56.64-46.22-54.6-95.9S268.67,396,267.71,353.46s-14.07-69.2-47.28-107.32"/><path class="cls-7" d="M932.63,597.24C972.93,515.46,960,459.5,960,459.5s-16-64.17-50.48-104.87S867.8,261.5,867.8,261.5s-20.67-99.39-11.87-119.34"/><path class="cls-7" d="M951.28,596.2c69.91-66.78,55.82-101.74,55.82-101.74s-.91-33-26.54-64.11S953,368.11,953,368.11s-12.19-46.35,51.6-113.26"/><path class="cls-3" d="M954.56,596.6S955,580.34,999.49,547s46.93-34.18,46.93-34.18-28.77,41.28-34.61,47.1S978.61,602.51,954.56,596.6Z"/><path class="cls-3" d="M958.4,603.5s-11.61-8.33-16-58.47-3.93-52.45-3.93-52.45,17.17,42.12,18.8,49.42S973.39,588.11,958.4,603.5Z"/><path class="cls-3" d="M269.55,570.91S258.05,559,263.46,501s6.42-60.58,6.42-60.58S280.7,491.94,281,500.59,289.82,556.49,269.55,570.91Z"/><path class="cls-3" d="M270.1,572.44s-6.37-9.9,5.46-49.67,12.89-41.39,12.89-41.39.4,37.49-.57,43.58S286.26,565.19,270.1,572.44Z"/><path class="cls-3" d="M270.85,571.43s-10.6-5.58-20.05-46.72-9.32-43.11-9.32-43.11,19.13,33,21.32,38.88S281.52,556.92,270.85,571.43Z"/><path class="cls-3" d="M931.77,597.44s-7.21-5.18-9.95-36.36-2.44-32.61-2.44-32.61,10.68,26.19,11.69,30.73S941.09,587.87,931.77,597.44Z"/><path class="cls-8" d="M964.25,260.52l62.57-67c13-17.26,61.32,10.63,41.6,38.8l-61.85,67.26C981.29,319.63,946.67,276.69,964.25,260.52Z"/><path class="cls-8" d="M884,96.46l-.05,94.82c2.09,22.23-48.32,35.19-52.76,0l-.6-94.5C835,63.74,885.67,71.82,884,96.46Z"/><path class="cls-8" d="M193.77,179.15l48.89,58.66c12.71,12.7-10.47,45.63-31.28,26.05l-49.11-58.14C147.88,183.12,182.06,163.08,193.77,179.15Z"/></g><g id="Head"><path class="cls-9" d="M788.74,325.83l-8.62,34.05a4.79,4.79,0,0,1-9.29,0L761.5,323a4.84,4.84,0,0,1,0-2.24l1-4.54a4.79,4.79,0,0,1,6.58-3.33L786,320.27A4.79,4.79,0,0,1,788.74,325.83Z"/><path d="M761.73,320.34v-.09a5.65,5.65,0,0,1,5-3.39c5.22,0,6.4,9.35,14.9,9.35,4.08,0,9.61-2.92,9.61-8.81,0-4.48-3.39-6.83-8-11.41-4.19-4.19-6.66-9.55-10.92-9.55-4.82,0-10.65,9.53-10.67,23.81"/><path class="cls-10" d="M779.37,283.19a4.62,4.62,0,0,0,.62,9.22v0a4.63,4.63,0,1,0,0-9.25Z"/></g><g id="Wing"><path class="cls-5" d="M728.85,479.18c3.31,40.72-48.09,79.83-139.55,85-34.91,2-60.7-5.15-78.76-14.94s-28.35-22.41-32.31-31.83C441,402.87,430.61,379.93,493.05,359.64,595.85,351,723.51,413.3,728.85,479.18Z"/><path class="cls-5" d="M551.89,543.5c-70.66-1.71-103.66-29.7-112.57-50.93h0a278.65,278.65,0,0,0,34.09,12.68"/><path class="cls-5" d="M448.17,472.05c-9.37-.78-18.94-1.44-28.79-2,8.55,20.39,39.29,47.46,104.28,50.6l23.6,1.39"/><path class="cls-5" d="M431.79,447.06c-8.46-.27-15.73-.43-25.13,1.1,7.77,18.53,39.44,43.1,95.16,51,12.5,1.76,27.85,2.3,40.08,2.39"/><path class="cls-5" d="M421,425.66c-7.46.37-14.72.91-21.65,1.63,8.14,19.4,35.52,44.53,91.77,51.27,17.08,2.05,33.72,3,47.76,3.33"/><path class="cls-5" d="M435.74,398.86c-14.71,1.68-28.44,4.37-40.1,8.16,8.06,19.21,35,43.62,90.1,51.06,17.7,2.39,34.47,3.58,49,4.09"/><path class="cls-5" d="M493.06,359.64a245.16,245.16,0,0,0-99.36,27c8.06,19.21,35,43.87,90.12,51.06a371.78,371.78,0,0,0,44.68,2.65"/></g></svg>