<svg id="Слой_2" data-name="Слой 2" xmlns="http://www.w3.org/2000/svg" viewBox="0 0 540.46 463.07"><defs><style>.cls-1{fill:#1d1d1b;}</style></defs><path class="cls-1" d="M725.36,613.15q5.14-17.67,12-34.88c2.31-5.71,4.71-11.38,7.35-17a132.86,132.86,0,0,1,9.08-16.49c7-10.61,15.73-19.92,25.07-28.25,4.67-4.18,9.49-8.15,14.35-12,2.41-1.95,5-3.67,7.51-5.42s5.07-3.56,7.62-5.3c20.37-13.87,40.66-27.38,59.78-42q7.17-5.47,14-11.28c4.52-3.89,8.86-7.95,13-12.11,8.36-8.39,16-17.31,21.66-28.29l1,.26a52.23,52.23,0,0,1-5.12,18.32,85.46,85.46,0,0,1-10.2,16.17,133.61,133.61,0,0,1-12.84,13.92c-4.51,4.38-9.25,8.47-14.09,12.41-19.37,15.73-40.57,28.43-60.6,42.22q-3.75,2.58-7.45,5.21c-2.46,1.8-4.87,3.64-7.4,5.31-5,3.37-10,6.81-14.74,10.43-9.55,7.22-18.41,15.24-25.69,24.58s-12.95,20.18-18.45,31-10.47,22.06-14.91,33.47Z" transform="translate(-709.4 -306.05)"/><path class="cls-1" d="M714.81,708.93a137.18,137.18,0,0,1-5.35-35.71,82.7,82.7,0,0,1,1.26-18.79,53.09,53.09,0,0,1,3-9.55,68.42,68.42,0,0,1,4.47-8.65c3.32-5.45,7-10.26,10.49-15s7.6-9.89,12.89-14.26a39.39,39.39,0,0,1,8.92-5.64,36.34,36.34,0,0,1,10.21-2.85,71.14,71.14,0,0,1,9.71-.58,59.51,59.51,0,0,1,9.86.72A34.48,34.48,0,0,1,790.33,602a39.28,39.28,0,0,1,8.47,5.93,51.26,51.26,0,0,1,6.63,7.33,72.28,72.28,0,0,1,5.22,8,97.33,97.33,0,0,1,7.6,17,118.06,118.06,0,0,1,4.42,17.87,163.4,163.4,0,0,1,1.61,36.1c-.65,11.93-2.19,23.7-3.93,35.41l-1-.07c0-11.85.16-23.67-.39-35.37-.26-5.84-.71-11.66-1.47-17.4a149.73,149.73,0,0,0-3.09-17,117.76,117.76,0,0,0-5.2-16.21,92,92,0,0,0-7.67-14.87c-5.9-9.32-13.84-17.09-23.19-18.1a48.16,48.16,0,0,0-7.81-.32,58,58,0,0,0-7.95.68,24.94,24.94,0,0,0-6.76,2,26.71,26.71,0,0,0-5.93,3.92c-3.8,3.22-7.18,7.56-10.6,12.17s-6.92,9.39-9.71,14a63.15,63.15,0,0,0-3.77,7,46.24,46.24,0,0,0-2.65,7.22,115.9,115.9,0,0,0-2.91,16.36c-1.52,11.54-2.7,23.16-4.44,35.11Z" transform="translate(-709.4 -306.05)"/><path class="cls-1" d="M718.48,725.41a22.35,22.35,0,0,0,3.24,3.84c1.19,1.18,2.44,2.3,3.73,3.35a47.34,47.34,0,0,0,3.93,2.91,20.34,20.34,0,0,0,3.92,2.09,4.32,4.32,0,0,0,1.47.32c.08,0,.09,0,.17,0l.45-.08c.29,0,.58-.14.87-.18a11.32,11.32,0,0,0,3.23-1.44A10.48,10.48,0,0,0,742,733.9a8.5,8.5,0,0,0,.88-1.33,11.49,11.49,0,0,0,.65-1.48,35.82,35.82,0,0,0,1-4.14c.19-.89.27-1.49.42-2.22s.22-1.52.3-2.34l1.09-10.07c.4-3.44.88-6.91,1.59-10.4l.57-2.61c.23-.88.43-1.74.69-2.61a29.61,29.61,0,0,1,1.94-5.14h0l.43-.87.56.89,11,17.53a74.93,74.93,0,0,0,5.74,8.15,44.63,44.63,0,0,0,6.78,6.88,18.86,18.86,0,0,0,7.68,4,86.94,86.94,0,0,0,10.08,1.14c1.81.16,3.66.36,5.52.71a28.63,28.63,0,0,1,5.54,1.58,19.24,19.24,0,0,1,5,2.86,13.38,13.38,0,0,1,3.67,4.34l-.8.6a16.94,16.94,0,0,0-9-4,44.83,44.83,0,0,0-10-.07,64.13,64.13,0,0,1-11.16.16,25.29,25.29,0,0,1-11.42-4.85c-6.42-4.69-11.14-10.71-15-17.13a40.39,40.39,0,0,1-4.21-10.42,30.25,30.25,0,0,1-.85-5.63,19.25,19.25,0,0,1,.44-5.75h1l1.67,10.34c.52,3.44,1,6.88,1.25,10.37a94,94,0,0,1,.36,10.69c0,.9-.1,1.87-.17,2.83s-.25,2.09-.4,2.9a28.29,28.29,0,0,1-1.54,5.91c-.21.53-.44,1.07-.71,1.6s-.58,1.08-.92,1.58a18.12,18.12,0,0,1-2.25,2.81,18.43,18.43,0,0,1-5.76,3.87A17.6,17.6,0,0,1,737,746a14.06,14.06,0,0,1-1.72-.11l-.85-.12a10.52,10.52,0,0,1-1.12-.21,11.4,11.4,0,0,1-3.36-1.51,23.43,23.43,0,0,1-4.54-3.9,37.57,37.57,0,0,1-3.46-4.38,36.88,36.88,0,0,1-2.72-4.77,17.5,17.5,0,0,1-1.67-5.28Z" transform="translate(-709.4 -306.05)"/><path class="cls-1" d="M763.17,746.35a13.23,13.23,0,0,1,3.38-1,11.09,11.09,0,0,1,3.4,0,9.63,9.63,0,0,1,3.69,1.44,7.75,7.75,0,0,1,1.91,1.76,6.58,6.58,0,0,1,.42.61,4.92,4.92,0,0,1,.33.62,8.22,8.22,0,0,1,.4,1,18.3,18.3,0,0,1,.78,3.46,23.31,23.31,0,0,1,.18,3.33,15.12,15.12,0,0,1-1.38,6.64l-1-.13c-.75-2-1.61-3.8-2.37-5.65s-1.52-3.72-2.25-5.12c-.1-.19-.19-.3-.26-.42s0,0,0,0h0a3.23,3.23,0,0,1-.42-.26c-.45-.26-1.16-.62-1.95-1.05a25.46,25.46,0,0,1-2.55-1.61,9.85,9.85,0,0,1-2.58-2.64Z" transform="translate(-709.4 -306.05)"/><path class="cls-1" d="M788.82,764.5a17.37,17.37,0,0,0,.28-4.93A13.19,13.19,0,0,0,788,755c-.28-.58-.73-1.3-1.09-2l-1.09-1.92a7.6,7.6,0,0,1-.91-2,11.08,11.08,0,0,1-.38-2.9h0l-1.31,0,1.63-.88a16.59,16.59,0,0,1,4.62-1.56,22.31,22.31,0,0,1,2.3-.32,15.71,15.71,0,0,1,2.42-.07,9.63,9.63,0,0,1,3,.62,9.23,9.23,0,0,1,2.65,1.6,14.52,14.52,0,0,1,3.32,4.31,20.09,20.09,0,0,1,2.37,9.76,17.76,17.76,0,0,1-2.6,9.33l-.93-.37a24.19,24.19,0,0,0,0-8.69,21.42,21.42,0,0,0-3-7.63,11.33,11.33,0,0,0-2.41-2.81,5,5,0,0,0-1.28-.73,5.1,5.1,0,0,0-1.49-.27c-.61,0-1.41-.08-2.17-.17a22.63,22.63,0,0,1-2.29-.35,16.34,16.34,0,0,1-4.57-1.64l.32-.9h0a4.76,4.76,0,0,1,3.3.71,6.36,6.36,0,0,1,2.06,2.23,11.67,11.67,0,0,1,1.2,2.71,16.31,16.31,0,0,1,.52,2.95,21.14,21.14,0,0,1-.56,5.72,16.75,16.75,0,0,1-1.88,5.13Z" transform="translate(-709.4 -306.05)"/><path class="cls-1" d="M816.15,742.17a13.42,13.42,0,0,1,5.22,1.25,12.94,12.94,0,0,1,2,1.15A5.31,5.31,0,0,1,824.8,746a4.28,4.28,0,0,1,.54,1.9c.06.67.12,1.35.22,2,.19,1.32.33,2.65.42,4a31.41,31.41,0,0,1-.42,8.08,14.41,14.41,0,0,1-1.31,4,8.57,8.57,0,0,1-2.65,3.17l-.8-.61c.6-2.26-.07-4.27-.83-6.25a33.77,33.77,0,0,0-3-5.72c-.58-.91-1.19-1.81-1.84-2.68s-1.67-1.57-1.94-2.59a4.34,4.34,0,0,1,0-1.73,15.76,15.76,0,0,1,.35-2,21.61,21.61,0,0,1,.66-2.24,19.19,19.19,0,0,1,1.09-2.62Z" transform="translate(-709.4 -306.05)"/><path class="cls-1" d="M827.88,737.24a42.69,42.69,0,0,1,15.53-7.88A50.13,50.13,0,0,1,861,727.69a127.57,127.57,0,0,1,16.82,3,94.34,94.34,0,0,0,16.34,2.47l.17,1c-5.47,2.14-11.57,2.3-17.26,1.93s-11.26-1.29-16.6-1.75a75.66,75.66,0,0,0-16,.36,103,103,0,0,0-16.14,3.48Z" transform="translate(-709.4 -306.05)"/><path class="cls-1" d="M950.43,479.74a199.87,199.87,0,0,1-8.1,39.39c-.93,3.24-2,6.43-3,9.62s-2.12,6.36-3.21,9.53l-6.67,18.8c-4.39,12.46-8.59,24.83-11.42,37.22-.8,3.08-1.28,6.19-1.91,9.26-.33,1.53-.51,3.08-.73,4.61l-.66,4.6c-.2,1.53-.34,3.05-.48,4.59s-.28,3.07-.39,4.6c-.22,3.08-.36,6.17-.48,9.26s-.16,6.2-.2,9.32,0,6.24,0,9.35q.13,9.35.79,18.66a353.16,353.16,0,0,0,5,37.09c1.15,6.16,2.47,12.3,3.89,18.45s3.16,12.3,4.93,18.34c.16.6.21.81,0,.61s-.33-.31-.66-.56a5.26,5.26,0,0,0-1.17-.68c-.77-.31-1.22-.22-1.12-.12a2.83,2.83,0,0,0,1.27.33c1.69.2,3.52.42,5.25.76l2.63.52,2.6.63a63.23,63.23,0,0,1,10.1,3.59,44.84,44.84,0,0,1,9.34,5.62l-.19,1c-3.57,1.08-7,1.77-10.27,2.49s-6.53,1.3-9.69,1.89l-2.37.44-2.34.41c-1.58.3-3.07.55-4.69.83a20,20,0,0,1-3.69.19,15,15,0,0,1-5.87-1.46,14.71,14.71,0,0,1-3.19-2.11,17.29,17.29,0,0,1-2.27-2.45,27.63,27.63,0,0,1-2.33-3.78c-3.38-6.17-6.41-12.38-9.2-18.81A189.81,189.81,0,0,1,892.82,712,193,193,0,0,1,888,691.57c-.33-1.72-.57-3.46-.83-5.19s-.52-3.47-.71-5.22-.44-3.48-.61-5.22l-.44-5.25a186.82,186.82,0,0,1,1.34-42.06q.79-5.25,2-10.46c.76-3.48,1.63-6.94,2.68-10.35l1.63-5.08c.55-1.68,1.06-3.38,1.71-5,1.27-3.28,2.41-6.6,3.83-9.77,5.38-12.8,11.53-24.87,17.85-36.64s12.67-23.3,18.48-35.09a226,226,0,0,0,14.56-36.67Z" transform="translate(-709.4 -306.05)"/><path class="cls-1" d="M979.14,757.54a14,14,0,0,0-3.34-3.36l-3.6-2.68c-1.26-1-2.52-2-3.66-3a18.31,18.31,0,0,0-1.73-1.38c-.58-.42-1.19-.8-1.81-1.17a37.83,37.83,0,0,0-4.08-2c-1.47-.71-3.06-1.32-4.67-2.07a31.19,31.19,0,0,1-4.77-2.7,14.38,14.38,0,0,1-3.93-4h0l-.27-.39.65-.49c2.4-1.79,4.53-3.07,6.5-4.29a39.39,39.39,0,0,0,4.89-3.29A3.07,3.07,0,0,0,960,726a2.94,2.94,0,0,1,.8-.75,12.46,12.46,0,0,1,1.81-1.11c.4-.19.9-.4,1.32-.57s.81-.32,1.16-.44c.69-.25,1.21-.44,1.55-.58l.23-.11.48-.16c.31-.1.71-.22,1.1-.32a14.2,14.2,0,0,1,3.84-.52c.29,0,.57,0,.85,0s.56,0,.91.09a12,12,0,0,1,2,.46,13.31,13.31,0,0,1,3.17,1.49,17.2,17.2,0,0,1,2.23,1.71c.41.33.67.61,1,.87a8,8,0,0,0,1.21,1.12c.63.54,1.53,1.16,2.58,2,.53.43,1.09.88,1.7,1.4s1.2,1.15,1.8,1.81c.3.33.61.69.9,1s.56.77.83,1.2a12.74,12.74,0,0,1,1.36,2.61,14,14,0,0,1,.74,2.69,16.19,16.19,0,0,1,.17,2.66,11.49,11.49,0,0,1-1.32,4.86,8.15,8.15,0,0,1-3.26,3.42l-1-.32a13.84,13.84,0,0,0-.47-1.64,8,8,0,0,0-.61-1.43,10.55,10.55,0,0,0-1.55-2.26,8,8,0,0,0-1.77-1.5,10.71,10.71,0,0,0-1.84-.84c-1.38-.49-3.19-1-5.55-2a21.51,21.51,0,0,1-3.73-2.1c-.51-.38-1-.78-1.47-1.13s-.88-.67-.76-.6a3.34,3.34,0,0,0,1.61.44c.33,0,0,0-.33,0-.62.06-2.31.44-3.13.48-.46.06-.74.08-1.06.13s-.81.15-1.36.3-1.23.35-2,.48-1.45.21-2.14.27a23.24,23.24,0,0,1-7.54-.91,23.55,23.55,0,0,1-3.43-1.27c-.55-.26-1.1-.52-1.64-.8s-1.07-.61-1.58-1l.38-.88h0a40.74,40.74,0,0,0,9.66,2.16c1.66.24,3.37.54,5.15.9a28.12,28.12,0,0,1,5.42,1.78,21.28,21.28,0,0,1,2.62,1.41,16.64,16.64,0,0,1,2.36,1.71,29.88,29.88,0,0,1,4,3.79,15.82,15.82,0,0,1,3,5.13,7.77,7.77,0,0,1-.28,6.27Z" transform="translate(-709.4 -306.05)"/><path class="cls-1" d="M997.23,733.42A7.46,7.46,0,0,1,1001,733a7.07,7.07,0,0,1,2.79,1.06,7.28,7.28,0,0,1,1.94,2,14.06,14.06,0,0,1,1.54,2.74,10.79,10.79,0,0,1,.83,3.43,8.69,8.69,0,0,1-.54,3.73,7,7,0,0,1-2.17,3,5,5,0,0,1-1.62.85c-.13,0-.36.15-.61.22a1.78,1.78,0,0,1-1.08,0,1.4,1.4,0,0,1-.33-.16,1,1,0,0,1-.34-.36,1,1,0,0,1-.11-.67,1,1,0,0,1,.29-.52.73.73,0,0,1,.4-.21.54.54,0,0,1,.41.07l-.33.94c.07.12.45.07.55-.06a.85.85,0,0,0,.21-.24.46.46,0,0,0,0-.38.81.81,0,0,0-.23-.27c-.12-.07-.11-.08-.19-.12-.53-.19-.63-.09-.66-.31a3.59,3.59,0,0,0-.16-1,5.51,5.51,0,0,0-.72-1.5,5.44,5.44,0,0,0-.86-1l-.91-1L998,741.89a6.36,6.36,0,0,1-1.1-1.72,7.46,7.46,0,0,1-.52-2.4,16.37,16.37,0,0,1,.2-3.57Z" transform="translate(-709.4 -306.05)"/><path class="cls-1" d="M995.72,695.1a14,14,0,0,0,1.33,6.24,18.08,18.08,0,0,0,3.67,5.07,20.19,20.19,0,0,0,5,3.6,24.25,24.25,0,0,0,5.82,2.07,39.51,39.51,0,0,0,6.29.85c2.14.18,4.33.16,6.54.22l3.35,0,3.4.11,6.82.22,13.64.62c4.53.24,9.11.33,13.73.85a57.45,57.45,0,0,1,13.7,2.92,31.25,31.25,0,0,1,6.3,3.17,25.85,25.85,0,0,1,5.25,4.64l-.73.68a34.66,34.66,0,0,0-3.27-1.22,13,13,0,0,0-1.58-.47c-.54-.12-1-.28-1.58-.36a38.13,38.13,0,0,0-6.22-.63,86.35,86.35,0,0,0-12.44.79c-2.11.22-4.27.53-6.47.77s-4.52.5-6.78.71-4.55.33-6.82.51-4.55.19-6.82.3a15,15,0,0,1-3.41-.2,16.57,16.57,0,0,1-3.41-1.07c-2.24-1-4.56-2.48-6.9-3.77a29.16,29.16,0,0,0-7-2.8,45.26,45.26,0,0,1-6.94-2.24,26.52,26.52,0,0,1-11.51-8.56,20.46,20.46,0,0,1-3.32-6.23,16.82,16.82,0,0,1-.66-7Z" transform="translate(-709.4 -306.05)"/><path class="cls-1" d="M1030.71,588.15a58.35,58.35,0,0,1-.69,18.53,80.16,80.16,0,0,1-5.7,17.91,104.3,104.3,0,0,1-9.21,16.37q-2.67,3.84-5.57,7.51c-2,2.43-4,4.78-5.94,7a124.32,124.32,0,0,0-10.51,13,42.41,42.41,0,0,0-3.66,6.66,50.82,50.82,0,0,0-2.58,7.4,72.56,72.56,0,0,0-1.66,8.05c-.21,1.37-.38,2.79-.55,4.18s-.24,2.69-.29,4a27.33,27.33,0,0,0,.82,7.9,12.61,12.61,0,0,0,4.31,6.78l-.37.92a13,13,0,0,1-8.4-5.32,22.1,22.1,0,0,1-2.61-4.43,29,29,0,0,1-1.69-4.76,36,36,0,0,1-1-4.9c-.23-1.6-.4-3.17-.48-4.78a57.12,57.12,0,0,1,.18-9.77,48.6,48.6,0,0,1,2.11-9.87,45.47,45.47,0,0,1,4.32-9.36c3.5-5.81,7.86-10.53,11.93-14.91,2.08-2.17,4-4.27,5.95-6.4,1-1,1.9-2.14,2.86-3.2l2.77-3.28a155,155,0,0,0,10.2-13.74,119.87,119.87,0,0,0,8.4-15,105.66,105.66,0,0,0,6.05-16.59Z" transform="translate(-709.4 -306.05)"/><path class="cls-1" d="M1092.28,705.35a1.42,1.42,0,0,1-1,.18,2.41,2.41,0,0,1-.94-.43,11.85,11.85,0,0,1-1.17-1c-.32-.28-.65-.58-.84-.53a1.15,1.15,0,0,0-.47.23c-.27.2-.67.44-1.13.76-.23.15-.47.32-.71.51s-.58.4-.81.6c-.48.41-.76.86-.66,1.17a.5.5,0,0,0,.39.32c.4-.11.67-.27.78-.12s.23.23.34.39.3.37,0,.42a6.51,6.51,0,0,1-.85.53H1085c0-.06-.13,0-.2-.14a2.38,2.38,0,0,1-.28-.36,6.23,6.23,0,0,0-.51-.59s-.12-.13-.22-.24l-.3-.28-.3-.21-.17-.09a.94.94,0,0,0-.31-.09.35.35,0,0,0-.14,0c-.08,0,0,.11,0,.18l.2.25a7.89,7.89,0,0,0,1.64,1.08c.67.35,1.39.68,2.18,1l1.31.58c.29.12.41.21.66.33l.76.41a5.49,5.49,0,0,1,2.61,3,6.59,6.59,0,0,1,.23,3.09,14,14,0,0,1-.63,2.55v0l-1,0V716h1v2.86l-1,0h0a11.73,11.73,0,0,0-.79-2.21,3.18,3.18,0,0,0-1.16-1.42.76.76,0,0,0-.54-.11c-.17,0-.24.11-.45.17l-.38.08a3.49,3.49,0,0,0-.51.07c-.25.07-.66.13-1,.2-.79.14-1.64.27-2.54.37a17.05,17.05,0,0,1-3,.1l-.93-.11a10.75,10.75,0,0,1-1.12-.28l-.66-.25a6.37,6.37,0,0,1-.81-.42,7,7,0,0,1-1.82-1.66,9.1,9.1,0,0,1-1-1.66,10.91,10.91,0,0,1-.58-1.51,13.38,13.38,0,0,1-.33-1.32c-.07-.41-.12-.79-.17-1.19a17.24,17.24,0,0,1,0-4.14,1.87,1.87,0,0,1,.26-1c.2-.29.39-.56.61-.84a19.27,19.27,0,0,1,1.47-1.7,13.8,13.8,0,0,1,2.31-1.93,9.45,9.45,0,0,1,2.38-1,10.15,10.15,0,0,1,3.87-.22c.56.06,1,.16,1.55.26a15,15,0,0,1,1.67.4,9.14,9.14,0,0,1,3.46,1.82,4.93,4.93,0,0,1,1.29,1.8,4.38,4.38,0,0,1,.28,1.56v1.05c0,.26-.16.4.11.55Z" transform="translate(-709.4 -306.05)"/><path class="cls-1" d="M1070.78,702.24a8,8,0,0,1-4.94,3.09,10.28,10.28,0,0,1-5.45-.38,23.67,23.67,0,0,1-9.39-5.76,22.76,22.76,0,0,1-5.46-9.74,24,24,0,0,1-.22-11,23.51,23.51,0,0,1,1.89-5.23,34,34,0,0,1,2.7-4.35c.94-1.3,1.87-2.48,2.71-3.62s1.66-2.36,2.47-3.57,1.6-2.45,2.39-3.7l2.3-3.84c.76-1.28,1.55-2.55,2.28-3.85l2.17-3.9,2.14-3.91,2-4q2-4,3.9-8,3.81-8,6.91-16.19a232.25,232.25,0,0,0,9.91-33.55,261,261,0,0,0,5.05-34.35c.17-2.88.44-5.74.52-8.62l.18-4.31.07-4.3c.1-2.87,0-5.74,0-8.6s-.14-5.54-.36-8.12c-.44-5.14-1.34-9.76-2.94-13.13a17.63,17.63,0,0,0-2.75-4.24c-1-1.21-2.57-2.41-4.22-4.07a49.63,49.63,0,0,1-5.29-6.46c-.92-1.33-1.9-2.7-2.86-4.2s-1.93-3.12-2.81-4.77c-.42-.83-.83-1.69-1.22-2.55s-.72-1.78-1-2.7-.61-1.85-.88-2.77a27.85,27.85,0,0,1-.57-2.89,18.37,18.37,0,0,1,1.37-11.25l1-.12a32.14,32.14,0,0,0,5.65,6.54,69,69,0,0,0,6.27,5c1.08.8,2.2,1.57,3.32,2.37s2.31,1.64,3.51,2.49a18.18,18.18,0,0,1,3.33,3.08,24.11,24.11,0,0,1,2.7,4.13c.82,1.48,1.54,3.06,2.31,4.51s1.58,2.84,2.46,4.17a36.42,36.42,0,0,1,4.35,8.4,55.53,55.53,0,0,1,2.83,18.23c.06,6.1-.41,12.09-.92,18.08l-.35,4.5-.47,4.49c-.27,3-.72,6-1.09,9-.88,6-1.85,11.9-3.12,17.79s-2.57,11.78-4.09,17.62A267.66,267.66,0,0,1,1087.36,618c-1.2,2.78-2.37,5.58-3.68,8.31s-2.57,5.5-3.94,8.2c-2.71,5.41-5.66,10.68-8.48,16l-2.16,4c-.71,1.32-1.37,2.66-2.07,4l-4.15,8.11c-.72,1.37-1.46,2.75-2.25,4.13s-1.58,2.66-2.22,3.84a22.94,22.94,0,0,0-1.49,3.25,12.65,12.65,0,0,0-.59,2.82,13.37,13.37,0,0,0,.68,5.69,11.93,11.93,0,0,0,1.12,2.52,10.63,10.63,0,0,0,1.58,2.12,13.91,13.91,0,0,0,4.54,3.21,5.84,5.84,0,0,1,2.62,2c.46.54,1,1.19,1.56,2,.3.41.63.86,1,1.37.18.26.37.53.57.79s.42.58.65.94Z" transform="translate(-709.4 -306.05)"/><path class="cls-1" d="M1103.59,509.62a24.38,24.38,0,0,1-.92-5.07c-.17-1.68-.23-3.36-.3-5-.08-3.35,0-6.67.19-10s.48-6.61.86-9.91c.22-1.65.42-3.31.7-5,.14-.84.29-1.69.47-2.58l.3-1.38.2-1.23a54.25,54.25,0,0,1,2.45-10.07,39.88,39.88,0,0,1,5.27-9.85,43.7,43.7,0,0,1,8.08-8.27,50.23,50.23,0,0,1,9.52-5.84,64.83,64.83,0,0,1,20.51-5.58,115.24,115.24,0,0,1,20.25-.11c6.6.51,13,1.24,19.47,1.86a82.76,82.76,0,0,0,9.51.48,26.85,26.85,0,0,0,9.23-1.72l.47.88a26.6,26.6,0,0,1-9.33,3.76,69.34,69.34,0,0,1-9.91,1.29c-6.55.54-13.07.72-19.44,1.22a116.18,116.18,0,0,0-18.53,2.57,56.58,56.58,0,0,0-16.31,6.5,33.4,33.4,0,0,0-11.48,11.16c-1.36,2.24-2.54,4.71-3.83,7.31s-2.68,5.36-4.15,8.23l-.55,1.08c-.17.34-.27.6-.41.95-.26.67-.53,1.39-.79,2.12l-1.55,4.49-3.1,9.14-3.12,9.19c-.54,1.53-1,3.07-1.52,4.62a41.4,41.4,0,0,0-1.25,4.64Z" transform="translate(-709.4 -306.05)"/><path class="cls-1" d="M919.56,530.41a177.09,177.09,0,0,0-4.11-26q-1.53-6.33-3.53-12.5c-1.33-4.13-2.86-8-4.48-12.31a44.44,44.44,0,0,1-2.07-29c.49-2.28,1-4.42,1.5-6.61s1.11-4.45,1.8-6.75a55.75,55.75,0,0,1,6-13.57,75.58,75.58,0,0,1,8.7-11.57,101.83,101.83,0,0,1,10.1-9.91,53,53,0,0,1,12.69-8.16,39.62,39.62,0,0,1,7.53-2.43,43.71,43.71,0,0,1,7.55-1,124.22,124.22,0,0,1,13.83.33,66.33,66.33,0,0,0,12.25-.1,28.3,28.3,0,0,0,10.8-3.7,48.2,48.2,0,0,0,9-7.71l1,.18a10.62,10.62,0,0,1-.5,7.73,16.44,16.44,0,0,1-4.86,6.13,32.55,32.55,0,0,1-6.44,4.06,39.47,39.47,0,0,1-7,2.62,50.67,50.67,0,0,1-7.27,1.37c-2.36.29-4.67.43-6.93.57-4.51.28-8.8.42-12.72,1a41.34,41.34,0,0,0-5.56,1.16,28,28,0,0,0-5,2,46.47,46.47,0,0,0-9.38,6.49q-2.28,2-4.5,4.19c-1.49,1.47-3,2.95-4.39,4.47a76.57,76.57,0,0,0-7.56,9.41,45.34,45.34,0,0,0-2.91,5,47.57,47.57,0,0,0-2.32,5.41c-.7,1.9-1.33,3.91-2,6s-1.31,4.22-1.89,6.23a45.37,45.37,0,0,0-2.12,11.5,45.86,45.86,0,0,0,1.73,11.77l1.64,6.46c.54,2.23,1,4.46,1.43,6.71a126.36,126.36,0,0,1,1.79,13.52,119,119,0,0,1-.87,27Z" transform="translate(-709.4 -306.05)"/><path class="cls-1" d="M1052.63,361c-1.71,1.64-3.4,3.11-5.08,4.51s-3.3,2.81-4.93,4.13l-9.47,7.89-4.58,3.91a25.89,25.89,0,0,0-3.45,3.28,4.63,4.63,0,0,0-.69,1.24,12.93,12.93,0,0,0-.54,1.91,24.89,24.89,0,0,0-.35,2.47l-.07,1.3,0,1.31c0,7,2.47,14.56,6.3,21.64s9.1,14,13.86,21.53l-.7.71a102.79,102.79,0,0,1-10.92-7.58,71.83,71.83,0,0,1-9.81-9.41,55.43,55.43,0,0,1-4.22-5.63,52.45,52.45,0,0,1-3.49-6.29,50.1,50.1,0,0,1-2.52-6.93,41.72,41.72,0,0,1-1.31-7.46,38.52,38.52,0,0,1-.09-3.88c.07-1.3.13-2.57.34-4a21.41,21.41,0,0,1,1.08-4.37,18.53,18.53,0,0,1,2.35-4.46,28.45,28.45,0,0,1,5.79-5.74,53.34,53.34,0,0,1,5.72-4,52.08,52.08,0,0,1,12.68-5.55,38.51,38.51,0,0,1,13.8-1.56Z" transform="translate(-709.4 -306.05)"/><path class="cls-1" d="M1052.87,358.47a56.49,56.49,0,0,1-3.3,7.51c-.61,1.2-1.26,2.37-1.92,3.53s-1.34,2.27-1.92,3.3a21.73,21.73,0,0,0-1.35,2.93,12.33,12.33,0,0,0-.62,2.74c-.16,1-.19,2.15-.28,3.4s-.15,2.59-.25,3.86a102.46,102.46,0,0,0-.26,14.7,37.15,37.15,0,0,0,3.85,14.3l-.7.71a18.62,18.62,0,0,1-6.47-5.65,27.44,27.44,0,0,1-4-7.78,46.74,46.74,0,0,1-1.86-16.82c0-1.36.17-2.68.29-4a29.85,29.85,0,0,1,.68-4.44,18,18,0,0,1,1.83-4.76,22.33,22.33,0,0,1,2.81-3.79c1-1.09,2-2,3-2.91s2-1.77,3-2.62a55.27,55.27,0,0,1,6.65-4.8Z" transform="translate(-709.4 -306.05)"/><path class="cls-1" d="M1104.31,348.83a2.22,2.22,0,0,1-1.24,1.26,5.22,5.22,0,0,1-1.71.42,19.28,19.28,0,0,1-2.82-.12,23.17,23.17,0,0,1-4.37-.78,24.81,24.81,0,0,1-4-1.46c-.64-.29-1.25-.62-1.86-.94a17.75,17.75,0,0,1-2.1-1.21,11.21,11.21,0,0,1-2.82-2.53,10.21,10.21,0,0,1-1.21-2,10.58,10.58,0,0,1-.65-1.85,14.58,14.58,0,0,1-.4-2.65c-.07-.72-.08-1.45-.1-2.18a27.17,27.17,0,0,1,1.16-8.81h0l4.65,1.75a87,87,0,0,0-5.14,8c-.77,1.39-1.53,2.79-2.28,4.22l-1.09,2.18-1.12,2.19-2.14,4.36c-.33.68-.62,1.34-.86,2a15.87,15.87,0,0,0-.61,1.92c-.33,1.34-.66,3-1,4.65l-.93,4.94a98.76,98.76,0,0,0-2.14,19.41c0,1.6.09,3.22.29,4.81.09.8.19,1.6.34,2.39s.26,1.6.44,2.38a20.19,20.19,0,0,0,4,8.68l-.63.77a14.48,14.48,0,0,1-4.45-3.32,22,22,0,0,1-3.29-4.57,31.19,31.19,0,0,1-2.32-5.06,46.9,46.9,0,0,1-1.61-5.34,61.54,61.54,0,0,1-1.31-10.91c-.07-1.82,0-3.61,0-5.4s.16-3.54.32-5.28.31-3.47.52-5.16l.32-2.59c.12-.92.26-1.9.5-2.94a27,27,0,0,1,.91-3.21c.37-1,.8-2,1.22-2.86s.86-1.71,1.3-2.48.85-1.52,1.32-2.27a52,52,0,0,1,6.51-8.75,29.71,29.71,0,0,1,9.07-6.78l7.9-3.58-3.25,5.33h0a40,40,0,0,1,3.44,7.7c.21.64.43,1.28.61,1.93a14.72,14.72,0,0,0,.48,1.41c.06.1.11.13.1.09a.8.8,0,0,0-.1-.22c-.08-.13,0,0,.31.2l1.46,1c.59.38,1.17.75,1.73,1.17a24.51,24.51,0,0,1,3.21,2.77,22.8,22.8,0,0,1,2.8,3.44,7.3,7.3,0,0,1,.89,1.77,8.14,8.14,0,0,0,.33.79,1.06,1.06,0,0,0,.7.61Z" transform="translate(-709.4 -306.05)"/><path class="cls-1" d="M1091,335.41a232.62,232.62,0,0,1,45.83-5,95.2,95.2,0,0,1,23.25,2.6,108.4,108.4,0,0,1,11.6,3.07,41.22,41.22,0,0,1,11.37,5.77c1.73,1.28,3.23,2.62,4.65,3.84a46.92,46.92,0,0,0,4.1,3.27c2.84,2,6.3,3.91,9.65,6.7a25.76,25.76,0,0,1,4.63,5,18.76,18.76,0,0,1,3,6.69,14.69,14.69,0,0,1-.36,7.74,28.59,28.59,0,0,1-2.85,5.94,49.37,49.37,0,0,0-2.57,4.58,13,13,0,0,0-.71,2,11.7,11.7,0,0,0-.3,2.2,30.76,30.76,0,0,1-.73,6.34,13.53,13.53,0,0,1-1.51,3.46,18.66,18.66,0,0,1-2.07,2.67c-1.43,1.54-2.79,2.81-4,4a13,13,0,0,0-1.49,1.89,14.47,14.47,0,0,0-1.13,2.14,13.54,13.54,0,0,0-.74,2.39,14.48,14.48,0,0,0-.35,2.56,15.33,15.33,0,0,0,.74,5.31l-.88.48a13.7,13.7,0,0,1-1.58-2.58,16.78,16.78,0,0,1-1-2.92,16.18,16.18,0,0,1-.45-3.13,16.74,16.74,0,0,1,.23-3.22,15.87,15.87,0,0,1,.86-3.19,18.06,18.06,0,0,1,1.47-3c1.1-1.85,2.38-3.34,3.28-4.77a8.22,8.22,0,0,0,1.52-3.78,43.77,43.77,0,0,0-.2-4.93,17.89,17.89,0,0,1,.14-3.59,20.09,20.09,0,0,1,.88-3.65c.76-2.23,1.71-4.14,2.45-5.8a16.38,16.38,0,0,0,1.45-4.22,4.26,4.26,0,0,0,0-1.42,4.51,4.51,0,0,0-.35-1.22,12.27,12.27,0,0,0-4.78-5.14c-1.22-.8-2.61-1.63-4.19-2.5s-3.33-1.8-5.16-3c-.91-.58-1.88-1.23-2.79-1.89s-1.72-1.29-2.5-1.9c-1.55-1.19-2.86-2.28-4-3.07a32.36,32.36,0,0,0-7.94-3.66c-1.51-.49-3.13-.87-4.78-1.31s-3.39-.94-5.1-1.53c-.85-.32-1.71-.63-2.57-.91l-2.59-1c-1.73-.63-3.48-1.31-5.25-1.91a63.72,63.72,0,0,0-10.9-2.57,260.68,260.68,0,0,0-45.24-2.92Z" transform="translate(-709.4 -306.05)"/><path class="cls-1" d="M1102.85,322.38a52.93,52.93,0,0,1,3.69-8.36,35.42,35.42,0,0,1,2.51-3.95c.23-.32.47-.65.72-1a12.79,12.79,0,0,1,.88-1A8,8,0,0,1,1112,307a5.51,5.51,0,0,1,2.42-.87,5,5,0,0,1,3.25.8,5.72,5.72,0,0,1,1.8,2,10.87,10.87,0,0,1,.7,1.52l.42,1.13c.48,1.49,1,2.88,1.3,4.19s.55,2.51.79,3.83.5,2.74.72,4.53l-.72.69a8.8,8.8,0,0,1-4.64-2.52,13,13,0,0,1-2.78-4.28c-.62-1.49-.94-3-1.37-4.28-.18-.63-.44-1.45-.46-1.49s.06.09.39.3a1.81,1.81,0,0,0,1.14.24c.34-.06.39-.14.35-.14a1,1,0,0,0-.39.19,7.29,7.29,0,0,0-.68.57l-.78.68c-1,.93-2,1.92-3.09,2.93a71.63,71.63,0,0,1-6.74,6Z" transform="translate(-709.4 -306.05)"/><path class="cls-1" d="M1210.48,372.37a34.39,34.39,0,0,1,11.6.66q2.85.66,5.61,1.56c1.83.63,3.62,1.29,5.38,2s3.44,1.5,5.13,2.26a28.32,28.32,0,0,1,2.66,1.36,16.81,16.81,0,0,1,1.71,1.21,13.08,13.08,0,0,1,1.73,1.76,15.28,15.28,0,0,1,2.09,3.48c.45,1.05.73,1.81,1.09,2.73a41.63,41.63,0,0,1,1.88,6.13,21.93,21.93,0,0,1,.48,3.63,16.41,16.41,0,0,1-.26,3.84,24,24,0,0,1-2.17,6.27,23.67,23.67,0,0,1-1.74,3.06,13.77,13.77,0,0,1-2.59,2.8,22.41,22.41,0,0,1-2.6,1.83c-.8.5-1.58,1-2.41,1.45a33.66,33.66,0,0,1-5.42,2.64,18.4,18.4,0,0,1-3.06.83,20.22,20.22,0,0,1-3,.26c-2,0-3.71-.07-5.55-.14l-5.49-.25-.09-1,5.21-2.58c1.7-.85,3.59-1.64,5-2.49a8.16,8.16,0,0,0,1.77-1.33,14.58,14.58,0,0,0,1.2-1.46c.76-1.07,1.52-2.32,2.41-3.76.42-.71,1-1.53,1.42-2.29A2.87,2.87,0,0,0,1233,405a.68.68,0,0,0-.35-.49c-.17-.11-.42-.06-.64-.12-.42-.08-.73-.41-.91-1.07a7.4,7.4,0,0,0-.61-1.85c-.24-.44-.51-.68-.75-.67s-.42.33-.51.42-.12.08-.16-.11a7.9,7.9,0,0,1,.32-3.34,10,10,0,0,1,.95-3,5.33,5.33,0,0,1,1.79-1.78,3.59,3.59,0,0,0,.88-.65,1.26,1.26,0,0,0,.19-1,5.81,5.81,0,0,0-1.39-2.34c-1.19-1.47-2.39-2.9-3.63-4.25s-2.52-2.66-3.86-3.86a52.22,52.22,0,0,0-4.22-3.36,25.51,25.51,0,0,0-9.78-4.2Z" transform="translate(-709.4 -306.05)"/><path class="cls-1" d="M1150,371.27c4.61-1.21,9.23-2.41,14-3.22a55.65,55.65,0,0,1,14.35-.81h0l1.13-1.07-1,2a10.17,10.17,0,0,1-2.46,3.22,13.71,13.71,0,0,1-3,2.05,19.09,19.09,0,0,1-3.43,1.39,13.62,13.62,0,0,1-3.94.59l-.52-.85a12.3,12.3,0,0,1,2.44-3.2,17,17,0,0,1,3-2.3,12.93,12.93,0,0,1,3.43-1.53,9.42,9.42,0,0,1,4.08-.26l.19.95h0a54.7,54.7,0,0,0-14.1.79c-4.66.81-9.26,2-13.87,3.21Z" transform="translate(-709.4 -306.05)"/></svg>