<svg xmlns="http://www.w3.org/2000/svg" viewBox="0 0 778 778"><defs><style>.cls-1{fill:#dbeae9;}.cls-2{fill:#fff;opacity:0.64;}.cls-3{fill:#808083;}.cls-4{fill:#d0d1d2;}.cls-5{fill:#f1a31f;}.cls-6{fill:#af6628;}.cls-7{fill:#59595c;}.cls-8{fill:#f3ca91;}.cls-9{fill:#f05a29;}.cls-10{fill:#d38a29;}.cls-11{fill:#f05a2a;}.cls-12{fill:none;stroke:#808083;stroke-miterlimit:10;stroke-width:1.89px;}.cls-13{fill:#56b1b2;opacity:0.57;}</style></defs><g id="Background"><rect class="cls-1" width="778" height="778"/><path class="cls-2" d="M427.07,195.83l186.2,0c2.31-13.39-13.23-26.24-25.95-21.45,4.12-22-14.82-45.45-37.24-46s-42.52,21.86-39.51,44.09a14.15,14.15,0,0,0-25.94,1.87C463.25,170.65,442,180.08,427.07,195.83Z"/><path class="cls-3" d="M135.09,240.32c.34-.63.7-1.24,1.06-1.86s.9-1.16,1.38-1.73,1.06-1,1.61-1.51,1.19-.87,1.8-1.28l2-1,2.1-.76c.73-.17,1.46-.33,2.19-.47s1.5-.11,2.24-.13,1.45.15,2.18.23l2.19.55,2.05.8c.64.36,1.29.69,1.93,1s1.21.79,1.82,1.18,1.13.91,1.69,1.36l1.55,1.53,1.38,1.69-.77,0,1.2-2,1.46-1.87c.56-.56,1.11-1.12,1.69-1.67l1.91-1.43,2.07-1.2,2.2-.94c.77-.23,1.54-.47,2.32-.67l2.45-.35h2.29c.81.1,1.63.19,2.44.31l2.31.62,2.2.91c.7.38,1.39.77,2.06,1.17l1.89,1.42c.57.54,1.12,1.09,1.67,1.64s.95,1.23,1.4,1.85l-.14.12c-.58-.5-1.14-1-1.69-1.52s-1.23-.86-1.82-1.31l-1.94-1.1-2-.88-2.09-.66-2.14-.42c-.7-.05-1.4-.13-2.1-.2l-2.28.07c.12,0,0,0,.05,0h-.12l-.14,0-.26,0-.54.07-1.07.15c-.69.19-1.4.35-2.1.53l-2,.77-1.94,1-1.82,1.22c-.55.47-1.12.93-1.69,1.4l-1.55,1.58-1.34,1.78-.41.55-.36-.54-1.16-1.73-1.41-1.54c-.54-.44-1.07-.9-1.63-1.32s-1.19-.73-1.8-1.07-1.29-.54-1.93-.79l-2-.51-2-.26c-.69,0-1.48,0-2.09,0s-1.34.14-2,.19-1.32.27-2,.4l-1.93.62-1.87.83c-.58.35-1.18.68-1.78,1s-1.1.82-1.67,1.22-1,.92-1.54,1.39-.93,1.08-1.42,1.6Z"/></g><g id="Ship"><path class="cls-4" d="M416.81,149.83q5.81,1.17,11.55,2.44c3.88.69,7.76,1.33,11.61,2.06L451.64,156c3.91.36,7.81.8,11.71,1.26l11.76.94c3.92.14,7.86.29,11.79.37,3.93-.09,7.87-.25,11.8-.4,3.92-.31,7.83-.73,11.74-1.09,3.9-.55,7.79-1.14,11.68-1.65l11.6-2.08,11.49-2.55,11.39-3a308.37,308.37,0,0,0,44.25-16.16l.08.17a219.19,219.19,0,0,1-43.78,17.93l-11.49,3-11.61,2.38-11.72,1.81c-3.92.44-7.86.8-11.78,1.2-3.95.24-7.89.42-11.82.72-3.94.1-7.88.19-11.82.35-4,0-7.89,0-11.84.07l-11.84-.43c-3.94-.35-7.87-.73-11.8-1.17l-11.7-1.86c-3.87-.8-7.72-1.69-11.58-2.52q-5.72-1.56-11.39-3.22Z"/><path class="cls-4" d="M718.4,286.28c-.22,6.46-.63,12.89-1.09,19.33s-.94,12.86-1.65,19.27-1.55,12.82-2.2,19.23S712.37,357,712,363.4s-.83,12.88-1.35,19.31-1,12.86-1.6,19.28c-1.24,12.84-2.6,25.67-4.34,38.46l-.19,0c.55-12.9,1.47-25.76,2.52-38.62.55-6.43,1.2-12.84,1.84-19.26s1.33-12.83,2.09-19.24,1.41-12.82,1.92-19.25.81-12.88,1.24-19.31,1.15-12.85,1.78-19.27,1.43-12.82,2.35-19.22Z"/><polygon class="cls-5" points="327.11 559.31 187.37 507.7 187.37 511.47 329.58 573.83 327.11 559.31"/><polygon class="cls-6" points="316.88 564.5 304.45 551.6 726.5 551.6 726.5 564.5 316.88 564.5"/><polygon class="cls-7" points="606.91 540.76 749.31 529.25 749.31 535.01 607.06 545.62 606.91 540.76"/><polygon class="cls-7" points="428.72 540.76 571.12 529.25 571.12 535.01 428.87 545.62 428.72 540.76"/><polygon class="cls-7" points="591.32 161.66 617.76 142.77 617.76 146.55 591.32 164.8 591.32 161.66"/><polygon class="cls-7" points="406.73 171.1 433.17 152.21 433.17 155.99 406.73 174.24 406.73 171.1"/><polygon class="cls-7" points="419.95 551.6 413.19 117.59 416.57 114.45 428.72 551.6 419.95 551.6"/><polygon class="cls-7" points="598.24 551.6 598.24 100.6 601.39 96.82 606.91 551.6 598.24 551.6"/><polygon class="cls-7" points="423.79 374.39 549.15 290.69 549.15 296.36 423.99 381.37 423.79 374.39"/><polygon class="cls-7" points="602.58 358.66 727.93 274.96 727.93 280.62 602.77 365.63 602.58 358.66"/><path class="cls-4" d="M413.8,150.93l-20.52,17.35L373.55,186.5l-19,19-18.14,19.79a622.43,622.43,0,0,0-63.67,86.25,613.4,613.4,0,0,0-48,95.85l-9.36,25.16-8.22,25.56L200,484l-6,26.19,5.53-26.3,6.71-26,8-25.69,9.13-25.3a601,601,0,0,1,47.75-96.31,609.12,609.12,0,0,1,64.2-86.22l18.36-19.65,19.21-18.83L393,167.94Z"/><path class="cls-8" d="M399,174.24c-44.16,61.27-103.41,162.19-105.8,246.17-27.37,10.69-53.55,26.51-74.66,47C259.64,355.14,338.23,239.39,399,174.24Z"/><path class="cls-8" d="M294,483.1C311.17,425.4,351.61,369.3,399.66,333,333,380.74,256.49,447.43,201.58,508.26,226.84,494.58,265.3,482,294,483.1Z"/><path class="cls-8" d="M342.68,497.46c11.89-51.86,32.72-102.28,62.94-146.07-55,50.45-113.55,111.39-159.76,170C274,511.84,313.13,500.17,342.68,497.46Z"/><path class="cls-8" d="M320.66,546.56,411.3,377.24c-8.84,33.61-14.68,68-15,102.7-.11,10.13.16,20.4,2.92,30.14s8.23,19.05,16.68,24.63c-16.06-4-32.61-6.17-49.11-4.71S334,536.77,320.66,546.56Z"/><path class="cls-8" d="M716.41,288.82c-13.16,42.7-16.23,71.27-15.7,98.94.94,49.23,11,91.9,32.38,136.28-38.5-9.62-77,.66-113.76,15.58-32.82-49.4-43.6-107.47-13.55-180.11Z"/><path class="cls-8" d="M620.74,150.37c6.56,45.22,51.4,96,88.92,122.07-44.41,13.22-77.26,34.63-92.54,72.38-27.84-15.09-53.19-132.5-26.79-178.73,7.38.82,15.4-2.3,21.46-6.61C615.06,157,617.47,152.88,620.74,150.37Z"/><path class="cls-8" d="M434.79,158.86c6.73,47.68,54.75,103.3,93.22,130.8-45.53,14.92-76.05,38.79-96.93,74.22-28.56-15.9-34.69-146.63-26.7-189.31,5.64.66,11.74-1.14,19.06-5C427.21,167.54,431.44,161.5,434.79,158.86Z"/><path class="cls-9" d="M760.54,299.33l-3.16,12.14a18.34,18.34,0,0,0-.88,6.3c.2,2.13,1.27,5,3.21,5.91-4.7,2.33-10.23,2.27-15.42,1.51S734,323,728.74,322.87s-10.53.48-14.19,4.24a39.16,39.16,0,0,0,3.24-35.9c4.05-2.62,9.58-1.4,14.26-.21s9,3.44,13.54,5.11S755.86,300.56,760.54,299.33Z"/><rect class="cls-5" x="585.58" y="529.25" width="128.88" height="22.35"/><rect class="cls-10" x="542.38" y="545.62" width="99.14" height="5.98"/><rect class="cls-9" x="538.13" y="540.7" width="109.05" height="4.98"/><path class="cls-9" d="M722.25,530.9h-143V526q72.16-16.63,143,0Z"/><path class="cls-8" d="M534.52,306.49c-13.2,24.33-16.27,52.9-15.74,80.57.94,49.23,11.05,91.9,32.38,136.28-38.5-9.62-77,.66-113.76,15.59a236.17,236.17,0,0,1-13.51-161.75Z"/><path class="cls-11" d="M645.66,108c-14.46-8.61-32.73-12.22-43-11,2.16,1.54,7.94,12.75-1.14,19.84A97.83,97.83,0,0,1,645.66,108Z"/><path class="cls-11" d="M416.78,116.13l2.38,1.52a12,12,0,0,1-.16,14.68,3.66,3.66,0,0,1-2,1.73c6.51,1.64,12.54-9.1,39.47-7.07-6.18-3.61-12-7.91-18.71-10.33S423.79,114.64,416.78,116.13Z"/><path class="cls-6" d="M316.88,564.5l402.47,0-43.3,43.31c-113.22,28.82-227.19,29.43-337.74,4.91C339.53,593.1,332.74,577.58,316.88,564.5Z"/><path class="cls-12" d="M235.3,191.34c-4-3.42-11-13.18-28.25-.81h.2c-10.58-7.33-18.79-10.08-28.25-.81"/><path class="cls-12" d="M123.62,191.34c-4-3.42-11-13.18-28.25-.81h.2c-10.58-7.33-18.79-10.08-28.25-.81"/></g><g id="Foreground"><path class="cls-13" d="M40.3,593.63a1911.74,1911.74,0,0,1,284,25.76c68,11.34,135.68,26.39,204.55,29.25S669.13,641.27,728,605.46c-112.46,28.19-230.28,20.76-345.41,7.08S155.81,583.67,40.3,593.63Z"/><path class="cls-2" d="M399.75,242.34l107.49-.27C501.61,232,488.3,227,477.43,230.88c1.31-9.58-6.81-19.36-16.46-19.85s-18.7,8.45-18.35,18.11A13.25,13.25,0,0,0,419,233.5C413,230.65,402.07,236.2,399.75,242.34Z"/></g></svg>