<svg id="Слой_1" data-name="Слой 1" xmlns="http://www.w3.org/2000/svg" viewBox="0 0 841.89 595.28"><defs><style>.cls-1{fill:#b91e18;stroke:#b91e18;}.cls-1,.cls-14,.cls-15,.cls-16{stroke-miterlimit:10;}.cls-2{fill:#ead642;}.cls-3{fill:#6975b7;}.cls-4{fill:#77cbec;}.cls-5{fill:#e58614;}.cls-6{fill:#fff;}.cls-7{fill:#aa2826;}.cls-8{fill:#5e9731;}.cls-9{fill:#f7ebaa;}.cls-10{fill:#006bb4;}.cls-11{fill:#1f3c90;}.cls-12{fill:#009fe3;}.cls-13,.cls-14{fill:#e06b0f;}.cls-14{stroke:#e06b0f;}.cls-15{fill:#2b231a;stroke:#2b231a;}.cls-16{fill:#d01317;stroke:#d01b17;}.cls-17{fill:#274f97;}.cls-18{fill:#53a8c2;}.cls-19{fill:#c68627;}.cls-20{fill:#559b36;}.cls-21{fill:#d81718;}</style></defs><path class="cls-1" d="M278.67,262.46a127.26,127.26,0,0,1,229-3.24l-6.48,2A121.7,121.7,0,0,0,286,262.87Z"/><path class="cls-2" d="M514.63,257.9C493,211,446.33,180.61,395.19,180.08c-53.47-.56-102.5,31.62-123.77,81.34l7.09.84a127.27,127.27,0,0,1,229-3.24Z"/><path class="cls-3" d="M263.51,258.79c22.61-56,77.56-91.71,136.2-89.18,53.43,2.31,101.39,36,122.82,86.34l-7.9,2C493,211,446.33,180.62,395.19,180.09c-53.47-.55-102.5,31.63-123.77,81.34Z"/><path class="cls-4" d="M140.27,152c.76,0,6.49-.68,11.75-1.48a11.91,11.91,0,0,0,9.76-9.24c7.84-34.86,84.86-52.88,106.19-2.57,1.1,2.6,3.12,13.93,5.93,13.94,34.72.08,40.25,22.1,42.33,39a9.43,9.43,0,0,0,8.36,8.21c9.08,1,23.15,2.31,27.14,5.87,15.07,11.89,17.87,31.06,10.44,40.63s-182.24,9.57-182.24,9.57a10.22,10.22,0,0,0-1.23.11C106.26,264.74,77.77,155.25,140.27,152Z"/><rect class="cls-2" x="316.65" y="283.44" width="216.19" height="62.04"/><polygon class="cls-5" points="230.85 143 122.59 314.46 339.1 314.46 230.85 143"/><polygon class="cls-5" points="230.78 143 141.97 264.54 319.59 264.54 230.78 143"/><polygon class="cls-5" points="230.75 97.77 200.38 152.63 261.12 152.63 230.75 97.77"/><path class="cls-5" d="M632.07,240.39h56.54a19.84,19.84,0,0,1,19.84,19.84v85.25a0,0,0,0,1,0,0H612.23a0,0,0,0,1,0,0V260.23A19.84,19.84,0,0,1,632.07,240.39Z"/><circle class="cls-5" cx="660.34" cy="245.85" r="29.67"/><circle class="cls-5" cx="748.15" cy="143" r="25.26"/><rect class="cls-2" x="708.45" y="209.96" width="79.39" height="135.52"/><rect class="cls-3" x="708.45" y="239.63" width="14.43" height="105.85"/><rect class="cls-3" x="773.41" y="239.63" width="14.43" height="105.85"/><rect class="cls-3" x="745.14" y="258.08" width="6.01" height="19.65"/><rect class="cls-3" x="745.14" y="290.02" width="6.01" height="19.65"/><rect class="cls-2" x="722.89" y="152.63" width="50.52" height="57.34"/><rect class="cls-6" x="739.53" y="181.29" width="17.24" height="34.88" rx="8.41"/><rect class="cls-7" x="708.45" y="209.96" width="79.39" height="12.43"/><rect class="cls-7" x="722.89" y="143" width="50.52" height="9.62"/><path class="cls-5" d="M747.4,101.35l-4.93,20.25a.77.77,0,0,0,.75,1h9.85a.77.77,0,0,0,.75-1l-4.92-20.25A.77.77,0,0,0,747.4,101.35Z"/><circle class="cls-5" cx="572.53" cy="143" r="25.26"/><rect class="cls-2" x="532.84" y="209.96" width="79.39" height="135.52"/><rect class="cls-3" x="532.84" y="239.63" width="14.43" height="105.85"/><rect class="cls-3" x="597.79" y="239.63" width="14.43" height="105.85"/><rect class="cls-3" x="569.53" y="258.08" width="6.01" height="19.65"/><rect class="cls-3" x="569.53" y="290.02" width="6.01" height="19.65"/><rect class="cls-2" x="547.27" y="152.63" width="50.52" height="57.34"/><rect class="cls-6" x="563.91" y="181.29" width="17.24" height="34.88" rx="8.41"/><rect class="cls-7" x="532.84" y="209.96" width="79.39" height="12.43"/><rect class="cls-7" x="547.27" y="143" width="50.52" height="9.62"/><path class="cls-5" d="M571.78,101.35l-4.92,20.25a.77.77,0,0,0,.75,1h9.85a.77.77,0,0,0,.75-1l-4.93-20.25A.77.77,0,0,0,571.78,101.35Z"/><path class="cls-5" d="M659.59,200.3l-4.92,20.25a.77.77,0,0,0,.75.95h9.85a.77.77,0,0,0,.75-.95l-4.93-20.25A.77.77,0,0,0,659.59,200.3Z"/><polygon class="cls-8" points="629.76 316 637.77 287.46 628.99 258.69 657.76 267.47 686.3 259.46 678.3 288 687.08 316.78 658.31 308 629.76 316"/><rect class="cls-2" x="635.39" y="264.69" width="49.89" height="49.89" transform="translate(16.69 614.69) rotate(-50.48)"/><circle class="cls-3" cx="660.34" cy="289.63" r="17.72"/><rect class="cls-2" x="440.94" y="266.54" width="91.9" height="17.41"/><path class="cls-2" d="M463.8,250h69v17.41h-69Z"/><rect class="cls-6" x="472.52" y="314.46" width="22.65" height="46.51" rx="11.05"/><rect class="cls-6" x="425.21" y="314.46" width="22.65" height="46.51" rx="11.05"/><rect class="cls-6" x="375.49" y="314.46" width="22.65" height="46.51" rx="11.05"/><rect class="cls-9" x="122.59" y="324.17" width="216.51" height="21.32"/><rect class="cls-9" x="141.97" y="270.84" width="177.62" height="12.6"/><rect class="cls-9" x="200.38" y="170.47" width="60.74" height="13.53"/><rect class="cls-7" x="200.38" y="152.63" width="60.74" height="17.84"/><rect class="cls-7" x="141.97" y="264.54" width="177.62" height="6.3"/><rect class="cls-7" x="122.59" y="314.46" width="216.51" height="10.66"/><path class="cls-10" d="M825.16,386.72c-17.15,4.71-28.82,2.83-36.5,0-5.15-1.9-10.49-5-18.67-4.93a37.06,37.06,0,0,0-17.83,4.93c-17.15,4.71-28.83,2.83-36.5,0-5.15-1.9-10.49-5-18.67-4.93a37.11,37.11,0,0,0-17.84,4.93c-17.15,4.71-28.82,2.83-36.5,0-5.15-1.9-10.49-5-18.67-4.93a37.06,37.06,0,0,0-17.83,4.93c-17.15,4.71-28.83,2.83-36.5,0-5.15-1.9-10.49-5-18.67-4.93a37.11,37.11,0,0,0-17.84,4.93c-17.15,4.71-28.82,2.83-36.5,0-5.15-1.9-10.49-5-18.67-4.93a37.1,37.1,0,0,0-17.83,4.93c-17.15,4.71-28.82,2.83-36.5,0-5.15-1.9-10.49-5-18.67-4.93a37.11,37.11,0,0,0-17.84,4.93c-17.15,4.71-28.82,2.83-36.5,0-5.15-1.9-10.49-5-18.67-4.93a37.1,37.1,0,0,0-17.83,4.93c-17.15,4.71-28.82,2.83-36.5,0-5.15-1.9-10.49-5-18.67-4.93a37.14,37.14,0,0,0-17.84,4.93c-17.15,4.71-28.82,2.83-36.5,0-5.15-1.9-10.49-5-18.67-4.93a37.1,37.1,0,0,0-17.83,4.93c-17.15,4.71-28.82,2.83-36.5,0-5.15-1.9-10.49-5-18.67-4.93a37.14,37.14,0,0,0-17.84,4.93V362.18A37.14,37.14,0,0,1,113,357.25c8.18,0,13.52,3,18.67,4.93,7.68,2.83,19.35,4.71,36.5,0A37.1,37.1,0,0,1,186,357.25c8.18,0,13.52,3,18.67,4.93,7.68,2.83,19.35,4.71,36.5,0A37.14,37.14,0,0,1,259,357.25c8.18,0,13.52,3,18.67,4.93,7.68,2.83,19.35,4.71,36.5,0A37.1,37.1,0,0,1,332,357.25c8.18,0,13.52,3,18.67,4.93,7.68,2.83,19.35,4.71,36.5,0A37.11,37.11,0,0,1,405,357.25c8.18,0,13.52,3,18.67,4.93,7.68,2.83,19.35,4.71,36.5,0A37.1,37.1,0,0,1,478,357.25c8.18,0,13.52,3,18.67,4.93,7.68,2.83,19.35,4.71,36.5,0A37.11,37.11,0,0,1,551,357.25c8.18,0,13.52,3,18.67,4.93,7.67,2.83,19.35,4.71,36.5,0A37.06,37.06,0,0,1,624,357.25c8.18,0,13.52,3,18.67,4.93,7.68,2.83,19.35,4.71,36.5,0A37.11,37.11,0,0,1,697,357.25c8.18,0,13.52,3,18.67,4.93,7.67,2.83,19.35,4.71,36.5,0A37.06,37.06,0,0,1,770,357.25c8.18,0,13.52,3,18.67,4.93,7.68,2.83,19.35,4.71,36.5,0Z"/><path class="cls-11" d="M825.16,362.51c-17.15,4.71-28.82,2.83-36.5,0-5.15-1.9-10.49-5-18.67-4.93a37,37,0,0,0-17.83,4.93c-17.15,4.71-28.83,2.83-36.5,0-5.15-1.9-10.49-5-18.67-4.93a37,37,0,0,0-17.84,4.93c-17.15,4.71-28.82,2.83-36.5,0-5.15-1.9-10.49-5-18.67-4.93a37,37,0,0,0-17.83,4.93c-17.15,4.71-28.83,2.83-36.5,0-5.15-1.9-10.49-5-18.67-4.93a37,37,0,0,0-17.84,4.93c-17.15,4.71-28.82,2.83-36.5,0-5.15-1.9-10.49-5-18.67-4.93a37,37,0,0,0-17.83,4.93c-17.15,4.71-28.82,2.83-36.5,0-5.15-1.9-10.49-5-18.67-4.93a37,37,0,0,0-17.84,4.93c-17.15,4.71-28.82,2.83-36.5,0-5.15-1.9-10.49-5-18.67-4.93a37,37,0,0,0-17.83,4.93c-17.15,4.71-28.82,2.83-36.5,0-5.15-1.9-10.49-5-18.67-4.93a37,37,0,0,0-17.84,4.93c-17.15,4.71-28.82,2.83-36.5,0-5.15-1.9-10.49-5-18.67-4.93a37,37,0,0,0-17.83,4.93c-17.15,4.71-28.82,2.83-36.5,0-5.15-1.9-10.49-5-18.67-4.93a37,37,0,0,0-17.84,4.93V343.6l730.05,1.22Z"/><path class="cls-12" d="M825.16,385.49c-17.15,4.72-28.82,2.83-36.5,0-5.15-1.89-10.49-4.95-18.67-4.93a37.06,37.06,0,0,0-17.83,4.93c-17.15,4.72-28.83,2.83-36.5,0-5.15-1.89-10.49-4.95-18.67-4.93a37.11,37.11,0,0,0-17.84,4.93c-17.15,4.72-28.82,2.83-36.5,0-5.15-1.89-10.49-4.95-18.67-4.93a37.06,37.06,0,0,0-17.83,4.93c-17.15,4.72-28.82,2.83-36.5,0-5.15-1.89-10.49-4.95-18.67-4.93a37.11,37.11,0,0,0-17.84,4.93c-17.15,4.72-28.82,2.83-36.5,0-5.15-1.89-10.49-4.95-18.67-4.93a37.1,37.1,0,0,0-17.83,4.93c-17.15,4.72-28.82,2.83-36.5,0-5.15-1.89-10.49-4.95-18.67-4.93a37.11,37.11,0,0,0-17.84,4.93c-17.15,4.72-28.82,2.83-36.5,0-5.15-1.89-10.49-4.95-18.67-4.93a37.1,37.1,0,0,0-17.83,4.93c-17.15,4.72-28.82,2.83-36.5,0-5.15-1.89-10.49-4.95-18.67-4.93a37.14,37.14,0,0,0-17.84,4.93c-17.15,4.72-28.82,2.83-36.5,0-5.14-1.89-10.49-4.95-18.67-4.93a37.1,37.1,0,0,0-17.83,4.93c-17.15,4.72-28.82,2.83-36.5,0-5.15-1.89-10.49-4.95-18.67-4.93a37.14,37.14,0,0,0-17.84,4.93V405.1H825.16Z"/><rect class="cls-9" x="467.84" y="275.24" width="16.01" height="7.34"/><rect class="cls-9" x="498.32" y="259.7" width="16.01" height="7.34"/><path class="cls-13" d="M461.11,460.54c18.28,10.26,28.1,26.78,27.77,50.8H461.11C472.9,497.17,474.18,480.54,461.11,460.54Z"/><polygon class="cls-14" points="457.67 468.24 438.61 525.51 457.67 525.51 457.67 468.24"/><rect class="cls-15" x="456.51" y="459.12" width="4.6" height="74.99" rx="2.24"/><path class="cls-16" d="M488.92,561.27H416V532.08H519.72Q514.46,553.16,488.92,561.27Z"/><path class="cls-17" d="M338.59,12.6c10.74-.83,20.71-1.24,27.09.31A1.28,1.28,0,0,1,366,13c8.4,5,15.2,12,21.08,20.21a.9.9,0,0,1-.74,1.42H365.82c3.92,1.6-2.49-5.44-6.29-10.85C358,21.56,345,16.73,338.35,14.34A.9.9,0,0,1,338.59,12.6Z"/><path class="cls-18" d="M420.67,12.79c-11.68-.95-22.7-1.54-29.54.14L391,13c-8.7,5.14-15.7,12.47-21.72,21.05a.4.4,0,0,0,.33.62h21.45c-3.92,1.6,2.48-5.44,6.29-10.85,1.77-2.52,18-8.36,23.42-10.25A.39.39,0,0,0,420.67,12.79Z"/><path class="cls-18" d="M349.09,38.27c20-8.87,38.64-6.93,56.67.37a.72.72,0,0,1,0,1.33,12.07,12.07,0,0,1-6.86.91.66.66,0,0,0-.28,0C385,44.61,368,42.53,349.26,39.63A.72.72,0,0,1,349.09,38.27Z"/><path class="cls-19" d="M344.9,39.82l11.54.93V35.5C352.41,35.47,349.38,36.19,344.9,39.82Z"/><rect class="cls-9" x="189.57" y="215.46" width="8.92" height="8.92"/><rect class="cls-9" x="173.89" y="240" width="8.92" height="8.92"/><rect class="cls-9" x="226.54" y="215.46" width="8.92" height="8.92"/><rect class="cls-9" x="227.07" y="240" width="8.92" height="8.92"/><rect class="cls-9" x="263.51" y="215.46" width="8.92" height="8.92"/><rect class="cls-9" x="279.2" y="240" width="8.92" height="8.92"/><path class="cls-20" d="M172.92,357.55c17.53,2.2,43,13.86,69.05,29.36,9.44,4.53,23.31,5.76,42.79,4.41C267.88,411,241.85,420,209,421.19l-4.21-26.56L190,414.3C174.57,416.51,153.7,398,151.48,396S136.33,371.28,136,357.38C143.45,351.73,156.89,350.36,172.92,357.55Z"/><path class="cls-20" d="M159,322c7.74-8,23.27-16.54,41-23.88,5.86-3.07,11.73-9.64,18.4-20,3.58,16,.76,29-11.07,46l-10.92-3.83L198,332c-4.7,8.64-25.78,15-27.64,15.39s-18.24-1.66-25.39-6.75C144.87,334.76,149.25,327.44,159,322Z"/><path class="cls-2" d="M129.73,347.86c-32.16,0-50.94,15.9-52.44,52.43l0,0C109.46,400.34,128.23,384.4,129.73,347.86Z"/><path class="cls-2" d="M182.17,400.31c0-32.17-15.89-50.94-52.42-52.45l0,0C129.7,380,145.64,398.81,182.17,400.31Z"/><path class="cls-2" d="M182.17,294.12c-32.16,0-50.93,15.89-52.44,52.42l0,0C161.9,346.59,180.67,330.65,182.17,294.12Z"/><path class="cls-2" d="M129.73,346.56c0-32.16-15.89-50.94-52.42-52.44h0C77.26,326.29,93.19,345.06,129.73,346.56Z"/><circle class="cls-9" cx="129.73" cy="347.86" r="31.57"/><path class="cls-21" d="M129.73,349.87c22.77-22.71,24.78-47.25,0-74.15a0,0,0,0,0,0,0C107,298.44,105,323,129.73,349.87Z"/><path class="cls-21" d="M129.73,424c22.77-22.72,24.78-47.26,0-74.15h0C107,372.6,105,397.14,129.73,424Z"/><path class="cls-21" d="M55.57,349.87c22.72,22.77,47.26,24.78,74.16,0v0C107,327.1,82.47,325.1,55.57,349.87Z"/><path class="cls-21" d="M129.73,349.87c22.72,22.77,47.26,24.78,74.15,0a0,0,0,0,0,0,0C181.17,327.1,156.63,325.1,129.73,349.87Z"/><circle class="cls-9" cx="129.73" cy="347.86" r="17.84"/><circle class="cls-2" cx="129.73" cy="347.86" r="9.52"/></svg>